<?xml version="1.0" encoding="UTF-8" standalone="no"?><!DOCTYPE svg PUBLIC "-//W3C//DTD SVG 1.1//EN" "http://www.w3.org/Graphics/SVG/1.1/DTD/svg11.dtd"><svg width="100%" height="100%" viewBox="0 0 4536 792" version="1.1" xmlns="http://www.w3.org/2000/svg" xmlns:xlink="http://www.w3.org/1999/xlink" xml:space="preserve" xmlns:serif="http://www.serif.com/" style="fill-rule:evenodd;clip-rule:evenodd;stroke-linejoin:round;stroke-miterlimit:2;"><g><g><g><text x="1025px" y="591.536px" style="font-family:'CoolveticaRg-Regular', 'Coolvetica', sans-serif;font-size:641.162px;fill:#333;">W<tspan x="1499.04px 1806.32px 2126.42px 2273.64px 2617.57px 2924.23px 3208.9px 3485.63px 3792.91px 4253.51px " y="591.536px 591.536px 591.536px 591.536px 591.536px 591.536px 591.536px 591.536px 591.536px 591.536px ">eb Systems</tspan></text></g></g><g id="Capa1"><ellipse id="primario" cx="407.083" cy="395.833" rx="407.083" ry="395.833" style="fill:#333;"/><ellipse id="secundario" cx="407.083" cy="395.833" rx="364.679" ry="354.601" style="fill:#fff;"/><g id="w"><path id="path829" d="M267.679,657.749c-0.367,-0.089 -1.159,-0.534 -2.198,-0.534c-1.039,0 -2.024,-0.235 -2.19,-0.522c-0.165,-0.287 -0.78,-0.529 -1.367,-0.538c-0.586,-0.008 -1.491,-0.361 -2.01,-0.782c-0.52,-0.421 -1.279,-0.766 -1.686,-0.766c-1.051,0 -8.546,-3.99 -9.284,-4.943c-0.337,-0.436 -0.826,-0.793 -1.085,-0.793c-0.571,0 -2.456,-1.513 -6.007,-4.823c-1.462,-1.362 -2.9,-2.477 -3.196,-2.477c-0.773,0 -8.211,-7.87 -8.211,-8.689c0,-0.377 -1.04,-1.967 -2.311,-3.534c-3.089,-3.806 -4.502,-5.826 -4.502,-6.437c0,-0.278 -0.353,-0.82 -0.785,-1.204c-0.883,-0.786 -4.346,-8.308 -4.84,-10.515c-0.177,-0.791 -0.516,-1.568 -0.754,-1.725c-0.238,-0.158 -0.433,-0.846 -0.433,-1.529c0,-0.683 -0.219,-1.387 -0.487,-1.564c-0.285,-0.189 -0.486,-3.211 -0.486,-7.301c0,-4.089 0.201,-7.111 0.486,-7.3c0.268,-0.177 0.487,-0.871 0.487,-1.542c0,-0.671 0.545,-2.241 1.211,-3.489c0.665,-1.248 1.213,-2.783 1.216,-3.412c0,-0.628 0.225,-1.287 0.492,-1.464c0.268,-0.178 0.487,-0.756 0.487,-1.287c0,-0.53 0.52,-2.1 1.156,-3.489c0.636,-1.388 1.424,-3.581 1.751,-4.871c0.327,-1.291 0.792,-2.754 1.033,-3.252c0.242,-0.498 0.44,-1.239 0.44,-1.647c0,-0.407 0.52,-1.877 1.156,-3.266c0.636,-1.389 1.429,-3.581 1.762,-4.871c0.332,-1.291 1.126,-3.435 1.763,-4.764c0.637,-1.329 1.158,-2.899 1.158,-3.489c0,-0.589 0.219,-1.217 0.487,-1.394c0.267,-0.177 0.486,-0.734 0.486,-1.237c0,-0.503 0.507,-2.073 1.127,-3.489c0.62,-1.416 1.415,-3.63 1.767,-4.921c0.352,-1.29 1.158,-3.543 1.793,-5.006c0.634,-1.462 1.152,-2.932 1.152,-3.266c0,-0.333 0.19,-1.014 0.422,-1.512c0.232,-0.498 0.67,-1.668 0.973,-2.6c0.304,-0.932 0.801,-2.457 1.106,-3.39c0.305,-0.932 0.852,-2.317 1.217,-3.078c0.364,-0.762 0.662,-1.752 0.662,-2.201c0,-0.449 0.403,-1.586 0.895,-2.526c0.492,-0.941 1.017,-2.298 1.168,-3.015c0.15,-0.717 0.712,-2.476 1.25,-3.91c0.537,-1.434 1.245,-3.429 1.573,-4.433c0.329,-1.003 0.787,-2.232 1.019,-2.73c0.231,-0.498 0.421,-1.263 0.421,-1.699c0,-0.436 0.525,-1.906 1.167,-3.266c0.642,-1.36 1.434,-3.529 1.761,-4.819c0.328,-1.291 1.116,-3.435 1.753,-4.764c0.637,-1.329 1.158,-2.899 1.158,-3.489c0,-0.589 0.219,-1.217 0.487,-1.394c0.268,-0.177 0.487,-0.805 0.487,-1.394c0,-0.59 0.521,-2.16 1.158,-3.489c0.637,-1.33 1.425,-3.473 1.753,-4.764c0.327,-1.29 1.119,-3.459 1.761,-4.819c0.642,-1.361 1.167,-2.931 1.167,-3.489c0,-0.559 0.219,-1.161 0.487,-1.339c0.267,-0.177 0.486,-0.802 0.486,-1.389c0,-0.586 0.502,-2.156 1.116,-3.489c0.614,-1.332 1.406,-3.478 1.76,-4.768c0.354,-1.291 1.037,-3.285 1.518,-4.433c0.482,-1.147 0.987,-2.555 1.122,-3.128c0.469,-1.982 2.391,-7.302 2.816,-7.796c0.235,-0.272 0.434,-0.976 0.443,-1.564c0.015,-0.588 0.337,-1.525 0.73,-2.081c0.393,-0.557 0.714,-1.43 0.714,-1.94c0,-0.51 0.438,-1.763 0.973,-2.784c0.535,-1.021 0.973,-2.295 0.973,-2.831c0,-0.535 0.545,-1.995 1.211,-3.243c0.666,-1.248 1.214,-2.783 1.217,-3.412c0,-0.628 0.224,-1.287 0.492,-1.465c0.268,-0.177 0.487,-0.756 0.487,-1.286c0,-0.53 0.52,-2.1 1.156,-3.489c0.636,-1.389 1.425,-3.581 1.753,-4.871c0.328,-1.291 1.122,-3.46 1.763,-4.82c0.642,-1.36 1.167,-2.83 1.167,-3.266c0,-0.436 0.19,-1.2 0.422,-1.698c0.231,-0.498 0.69,-1.727 1.018,-2.731c0.328,-1.004 1.036,-2.998 1.574,-4.432c0.537,-1.434 1.099,-3.194 1.249,-3.911c0.151,-0.717 0.676,-2.073 1.168,-3.014c0.493,-0.941 0.895,-2.083 0.895,-2.537c0,-0.454 0.521,-1.914 1.158,-3.243c0.637,-1.33 1.426,-3.473 1.753,-4.764c0.327,-1.29 1.12,-3.459 1.762,-4.819c0.641,-1.36 1.166,-2.93 1.166,-3.489c0,-0.559 0.219,-1.161 0.487,-1.338c0.268,-0.178 0.487,-0.786 0.487,-1.352c0,-0.566 0.508,-2.136 1.128,-3.489c0.621,-1.353 1.416,-3.516 1.767,-4.806c0.351,-1.291 1.157,-3.543 1.791,-5.006c0.634,-1.462 1.153,-3.033 1.153,-3.489c0,-0.456 0.219,-0.975 0.487,-1.152c0.267,-0.177 0.486,-0.78 0.486,-1.34c0,-0.56 0.456,-2.13 1.013,-3.489c2.159,-5.267 2.393,-5.919 2.393,-6.645c0,-0.411 0.438,-1.584 0.974,-2.605c0.535,-1.021 0.98,-2.378 0.988,-3.014c0.016,-0.637 0.337,-1.613 0.73,-2.17c0.393,-0.556 0.715,-1.33 0.715,-1.72c0,-0.389 0.438,-1.679 0.973,-2.866c0.535,-1.187 0.973,-2.57 0.973,-3.073c0,-0.502 0.202,-1.048 0.449,-1.211c0.248,-0.164 0.602,-1.042 0.789,-1.951c0.186,-0.91 0.75,-2.439 1.253,-3.399c0.504,-0.961 0.915,-2.2 0.915,-2.755c0,-0.554 0.548,-2.059 1.217,-3.343c0.669,-1.285 1.217,-2.804 1.217,-3.377c0,-0.574 0.219,-1.188 0.486,-1.365c0.268,-0.177 0.487,-0.734 0.487,-1.237c0,-0.503 0.507,-2.073 1.127,-3.489c0.62,-1.416 1.41,-3.63 1.755,-4.921c0.345,-1.29 1.042,-3.248 1.549,-4.351c0.507,-1.102 0.922,-2.336 0.922,-2.741c0,-0.405 0.525,-1.85 1.166,-3.21c0.642,-1.36 1.435,-3.529 1.762,-4.82c0.327,-1.29 1.116,-3.434 1.753,-4.763c0.637,-1.33 1.158,-2.756 1.158,-3.171c0,-0.414 0.546,-1.908 1.214,-3.319c0.668,-1.41 1.216,-2.962 1.217,-3.447c0,-0.485 0.221,-1.026 0.489,-1.204c0.267,-0.177 0.486,-0.789 0.486,-1.359c0,-0.571 0.438,-2.009 0.973,-3.196c0.536,-1.187 0.974,-2.419 0.974,-2.737c0,-0.319 0.766,-2.183 1.703,-4.143c0.936,-1.96 1.703,-3.839 1.703,-4.176c0,-0.79 4.911,-11.349 5.831,-12.536c0.385,-0.497 0.928,-1.315 1.206,-1.817c1.344,-2.426 3.157,-5.07 4.092,-5.966c0.57,-0.546 1.036,-1.34 1.036,-1.765c0,-1.022 8.598,-10.412 10.462,-11.426c0.803,-0.436 2.117,-1.449 2.92,-2.249c1.761,-1.757 12.806,-7.814 14.247,-7.814c0.563,0 1.159,-0.234 1.325,-0.521c0.165,-0.287 0.822,-0.522 1.459,-0.522c0.638,0 1.295,-0.234 1.46,-0.521c0.166,-0.287 1,-0.53 1.854,-0.54c0.854,-0.01 2.1,-0.354 2.769,-0.764c0.669,-0.41 2.432,-0.753 3.917,-0.763c1.486,-0.01 2.93,-0.264 3.21,-0.564c0.332,-0.356 3.448,-0.465 8.978,-0.314c9.261,0.254 14.216,0.813 15.858,1.791c0.584,0.348 1.721,0.632 2.526,0.632c0.805,0 1.598,0.235 1.764,0.522c0.165,0.287 1.151,0.521 2.19,0.521c1.039,0 2.024,0.235 2.189,0.522c0.166,0.287 0.694,0.521 1.173,0.521c1.002,0 12.919,6.362 14.146,7.552c0.449,0.435 1.034,0.791 1.301,0.791c0.267,0 1,0.587 1.628,1.304c0.629,0.717 1.393,1.304 1.697,1.304c0.599,0 9.096,9.331 10.741,11.795c0.552,0.826 1.405,2.44 1.897,3.587c0.492,1.147 1.065,2.207 1.275,2.355c0.566,0.4 3.368,6.248 3.368,7.031c0,0.371 1.314,3.441 2.92,6.822c1.606,3.381 2.919,6.449 2.919,6.819c0,0.637 0.538,2.04 3.221,8.402c0.637,1.512 1.159,3.199 1.159,3.75c0,0.55 0.219,1.145 0.487,1.322c0.267,0.178 0.486,0.78 0.486,1.339c0,0.558 0.518,2.129 1.15,3.489c1.109,2.387 1.486,3.406 3.131,8.469c0.419,1.291 1.16,3.117 1.647,4.057c0.487,0.941 0.885,2.034 0.885,2.429c0,0.395 0.512,1.855 1.139,3.243c0.626,1.389 1.393,3.288 1.703,4.22c0.31,0.932 0.817,2.457 1.127,3.389c0.309,0.933 1.075,2.783 1.703,4.112c0.627,1.33 1.14,2.789 1.14,3.243c0,0.455 0.438,1.662 0.974,2.683c0.535,1.021 0.973,2.215 0.973,2.653c0,0.438 0.547,1.847 1.216,3.132c0.669,1.284 1.217,2.748 1.217,3.253c0,0.505 0.761,2.432 1.692,4.283c0.931,1.851 1.697,3.769 1.703,4.262c0,0.493 0.449,1.732 0.984,2.754c0.536,1.021 0.974,2.106 0.974,2.412c0,0.306 0.766,2.286 1.703,4.402c0.936,2.115 1.703,4.062 1.703,4.327c0,0.265 1.095,2.854 2.433,5.755c1.338,2.9 2.433,5.577 2.433,5.949c0,1.093 2.372,5.874 3.417,6.888c0.529,0.513 0.963,1.208 0.963,1.543c0,0.958 2.149,2.878 3.22,2.878c0.946,0 4.079,-2.991 4.079,-3.894c0,-0.251 0.332,-0.849 0.737,-1.329c0.969,-1.147 4.615,-8.848 4.615,-9.747c0,-0.384 0.767,-2.33 1.704,-4.323c0.936,-1.993 1.704,-3.923 1.705,-4.289c0,-0.366 0.768,-2.263 1.703,-4.216c0.936,-1.954 1.701,-3.877 1.701,-4.275c0,-0.397 0.547,-1.826 1.217,-3.174c0.669,-1.349 1.216,-2.725 1.216,-3.059c0,-0.333 0.438,-1.578 0.973,-2.765c0.536,-1.187 0.974,-2.474 0.974,-2.859c0,-0.386 0.761,-2.216 1.692,-4.067c0.93,-1.851 1.697,-3.767 1.703,-4.259c0,-0.492 0.558,-1.945 1.227,-3.229c0.669,-1.284 1.217,-2.693 1.217,-3.131c0,-0.438 0.438,-1.632 0.973,-2.654c0.535,-1.021 0.973,-2.209 0.973,-2.64c0,-0.431 0.548,-1.941 1.217,-3.356c0.669,-1.415 1.216,-2.924 1.216,-3.354c0,-0.429 0.548,-1.831 1.217,-3.116c0.669,-1.284 1.216,-2.693 1.216,-3.131c0,-0.438 0.438,-1.632 0.974,-2.653c0.535,-1.021 0.973,-2.21 0.973,-2.641c0,-0.431 0.547,-1.941 1.216,-3.356c0.67,-1.415 1.221,-2.873 1.226,-3.241c0,-0.368 0.772,-2.282 1.703,-4.252c0.932,-1.971 1.694,-3.899 1.694,-4.286c0,-0.387 0.438,-1.539 0.973,-2.561c0.536,-1.021 0.976,-2.26 0.98,-2.753c0,-0.493 0.55,-1.918 1.216,-3.166c0.666,-1.248 1.211,-2.629 1.211,-3.068c0,-0.439 0.766,-2.41 1.703,-4.38c0.937,-1.969 1.704,-3.874 1.706,-4.232c0,-0.884 8.065,-18.056 8.991,-19.153c0.406,-0.48 0.738,-1.111 0.738,-1.402c0,-0.976 9.463,-9.843 13.382,-12.539c2.504,-1.723 10.236,-5.883 10.933,-5.883c0.294,0 1.615,-0.587 2.936,-1.304c1.32,-0.717 2.903,-1.304 3.518,-1.304c0.615,0 2.32,-0.507 3.788,-1.127c1.468,-0.619 3.983,-1.226 5.589,-1.347c1.606,-0.121 3.128,-0.436 3.382,-0.698c0.254,-0.263 2.486,-0.478 4.959,-0.478c2.473,0 4.632,-0.234 4.797,-0.521c0.381,-0.66 8.649,-0.69 9.27,-0.033c0.255,0.269 2.762,0.598 5.572,0.731c5.946,0.283 10.025,0.921 11.525,1.805c0.585,0.344 1.721,0.625 2.526,0.625c0.805,0 1.599,0.235 1.764,0.522c0.165,0.287 0.822,0.521 1.46,0.521c0.637,0 1.294,0.235 1.46,0.522c0.165,0.287 0.813,0.521 1.439,0.521c0.626,0 2.091,0.584 3.256,1.298c1.164,0.713 2.467,1.3 2.894,1.303c0.945,0.008 3.717,1.446 4.114,2.135c0.158,0.274 1.345,1.073 2.637,1.774c3.5,1.901 6.327,4.08 8.753,6.748c1.194,1.312 2.453,2.386 2.798,2.386c0.346,0 0.629,0.298 0.629,0.664c0,0.365 1.752,2.53 3.893,4.811c2.141,2.281 3.893,4.353 3.893,4.605c0,0.252 0.547,1.156 1.216,2.008c0.669,0.852 1.217,1.854 1.217,2.228c0,0.373 0.324,0.966 0.72,1.318c0.912,0.812 2.026,3.19 2.441,5.212c0.176,0.86 0.522,1.698 0.769,1.861c0.247,0.164 0.449,0.857 0.449,1.54c0,0.683 0.219,1.387 0.487,1.564c0.268,0.177 0.487,1.233 0.487,2.347c0,1.113 0.219,2.169 0.486,2.346c0.619,0.41 0.655,15.51 0.038,16.191c-0.247,0.273 -0.559,2.138 -0.693,4.146c-0.311,4.62 -0.799,7.66 -1.35,8.398c-0.458,0.613 -1.316,4.389 -1.737,7.639c-0.14,1.078 -0.449,2.089 -0.689,2.247c-0.239,0.159 -0.435,1.199 -0.435,2.313c0,1.113 -0.219,2.169 -0.486,2.346c-0.268,0.177 -0.487,0.8 -0.487,1.385c0,0.584 -0.306,1.684 -0.68,2.446c-0.374,0.761 -0.943,2.44 -1.264,3.73c-0.321,1.291 -0.782,2.754 -1.023,3.252c-0.242,0.498 -0.446,1.319 -0.455,1.825c-0.015,0.506 -0.337,1.375 -0.73,1.932c-0.393,0.557 -0.714,1.54 -0.714,2.185c0,0.646 -0.219,1.319 -0.487,1.496c-0.267,0.177 -0.486,0.771 -0.486,1.319c0,0.548 -0.521,2.235 -1.158,3.749c-0.637,1.515 -1.43,3.692 -1.763,4.839c-0.333,1.147 -0.797,2.494 -1.032,2.992c-0.235,0.498 -0.427,1.268 -0.427,1.712c0,0.443 -0.508,1.913 -1.129,3.266c-0.621,1.352 -1.408,3.515 -1.75,4.806c-0.342,1.29 -0.82,2.754 -1.061,3.252c-0.242,0.498 -0.439,1.287 -0.439,1.754c0,0.467 -0.522,1.937 -1.159,3.266c-0.636,1.33 -1.424,3.473 -1.75,4.764c-0.326,1.29 -0.79,2.754 -1.032,3.252c-0.241,0.498 -0.439,1.283 -0.439,1.744c0,0.462 -0.306,1.462 -0.68,2.224c-0.374,0.761 -0.944,2.44 -1.266,3.73c-0.323,1.291 -1.112,3.46 -1.753,4.82c-0.642,1.36 -1.167,2.83 -1.167,3.266c0,0.436 -0.198,1.2 -0.439,1.698c-0.242,0.498 -0.706,1.962 -1.032,3.252c-0.326,1.291 -1.114,3.435 -1.751,4.764c-0.636,1.329 -1.158,2.799 -1.158,3.266c0,0.467 -0.197,1.257 -0.439,1.755c-0.241,0.498 -0.719,1.961 -1.061,3.252c-0.342,1.29 -1.13,3.453 -1.75,4.806c-0.621,1.352 -1.129,2.922 -1.129,3.489c0,0.566 -0.194,1.157 -0.431,1.314c-0.236,0.157 -0.54,0.933 -0.675,1.726c-0.133,0.792 -0.686,2.613 -1.227,4.047c-0.541,1.434 -1.252,3.429 -1.58,4.432c-0.328,1.004 -0.787,2.233 -1.018,2.731c-0.232,0.498 -0.422,1.333 -0.422,1.856c0,0.522 -0.321,1.406 -0.714,1.962c-0.393,0.557 -0.722,1.379 -0.73,1.827c-0.015,0.448 -0.454,1.786 -0.989,2.973c-0.535,1.187 -0.98,2.581 -0.989,3.096c-0.015,0.516 -0.337,1.394 -0.73,1.95c-0.392,0.557 -0.714,1.415 -0.714,1.906c0,0.492 -0.41,1.797 -0.91,2.899c-1.007,2.218 -2.954,8.056 -3.363,10.087c-0.145,0.717 -0.666,2.074 -1.158,3.014c-0.492,0.941 -0.895,2.078 -0.895,2.527c0,0.449 -0.306,1.439 -0.68,2.2c-0.374,0.762 -0.944,2.44 -1.266,3.731c-0.323,1.291 -1.111,3.459 -1.753,4.82c-0.642,1.36 -1.167,2.83 -1.167,3.266c0,0.436 -0.198,1.2 -0.439,1.698c-0.242,0.498 -0.706,1.962 -1.032,3.252c-0.326,1.291 -1.114,3.434 -1.751,4.764c-0.636,1.329 -1.158,2.899 -1.158,3.489c0,0.589 -0.219,1.217 -0.486,1.394c-0.268,0.177 -0.487,0.734 -0.487,1.237c0,0.503 -0.507,2.073 -1.127,3.489c-0.62,1.416 -1.408,3.63 -1.75,4.921c-0.343,1.29 -0.822,2.754 -1.063,3.252c-0.242,0.498 -0.439,1.239 -0.439,1.646c0,0.408 -0.521,1.878 -1.157,3.266c-0.636,1.389 -1.423,3.581 -1.75,4.872c-0.327,1.29 -0.792,2.754 -1.034,3.252c-0.241,0.498 -0.439,1.225 -0.439,1.617c0,0.391 -0.547,1.815 -1.216,3.163c-0.669,1.349 -1.217,2.895 -1.217,3.436c0,0.542 -0.219,1.13 -0.486,1.307c-0.268,0.177 -0.494,0.954 -0.503,1.726c-0.015,0.771 -0.337,1.858 -0.729,2.415c-0.393,0.557 -0.715,1.331 -0.715,1.72c0,0.389 -0.438,1.679 -0.973,2.866c-0.535,1.187 -0.973,2.57 -0.973,3.073c0,0.503 -0.194,1.042 -0.431,1.199c-0.237,0.157 -0.542,0.934 -0.678,1.726c-0.321,1.872 -2.294,7.554 -2.844,8.193c-0.235,0.272 -0.434,0.976 -0.442,1.564c0,0.588 -0.337,1.525 -0.73,2.081c-0.393,0.557 -0.715,1.393 -0.715,1.858c0,0.465 -0.438,1.816 -0.973,3.004c-0.535,1.187 -0.973,2.592 -0.973,3.122c0,0.53 -0.189,1.187 -0.419,1.459c-0.23,0.273 -0.808,1.786 -1.284,3.363c-0.476,1.578 -1.254,3.807 -1.729,4.954c-0.475,1.147 -0.975,2.555 -1.111,3.129c-0.469,1.981 -2.391,7.302 -2.816,7.795c-0.235,0.273 -0.427,1.022 -0.427,1.664c0,0.643 -0.202,1.303 -0.449,1.466c-0.247,0.164 -0.591,0.989 -0.764,1.834c-0.173,0.845 -0.738,2.473 -1.254,3.619c-0.517,1.145 -0.939,2.438 -0.939,2.872c0,0.434 -0.548,1.839 -1.217,3.123c-0.669,1.285 -1.216,2.804 -1.216,3.378c0,0.573 -0.219,1.187 -0.487,1.364c-0.268,0.177 -0.487,0.734 -0.487,1.236c0,0.503 -0.429,1.866 -0.953,3.029c-0.891,1.977 -1.446,3.472 -2.962,7.989c-0.337,1.004 -1.346,3.433 -2.242,5.398c-0.895,1.966 -1.628,3.885 -1.628,4.264c0,0.38 -0.767,2.267 -1.703,4.193c-0.937,1.925 -1.704,3.846 -1.704,4.267c0,1.125 -7.582,17.131 -9.657,20.387c-0.978,1.534 -2.039,3.294 -2.358,3.91c-0.71,1.374 -13.52,14.797 -15.501,16.244c-2.303,1.682 -6.611,3.911 -7.56,3.911c-0.481,0 -1.011,0.234 -1.176,0.521c-0.166,0.287 -0.932,0.521 -1.703,0.521c-0.772,0 -1.538,0.235 -1.704,0.522c-0.165,0.287 -1.218,0.53 -2.34,0.54c-1.121,0.009 -2.586,0.354 -3.256,0.763c-0.755,0.463 -2.636,0.753 -4.959,0.764c-2.058,0.01 -3.877,0.253 -4.043,0.54c-0.193,0.335 -7.781,0.522 -21.168,0.522c-13.386,0 -20.974,-0.187 -21.167,-0.522c-0.166,-0.287 -1.547,-0.53 -3.07,-0.54c-1.523,-0.01 -3.317,-0.354 -3.986,-0.764c-0.669,-0.409 -1.915,-0.753 -2.769,-0.763c-0.854,-0.01 -1.688,-0.253 -1.854,-0.54c-0.165,-0.287 -0.822,-0.522 -1.46,-0.522c-0.637,0 -1.294,-0.234 -1.46,-0.521c-0.165,-0.287 -0.807,-0.521 -1.427,-0.521c-1.443,0 -5.349,-2.296 -7.698,-4.525c-1.004,-0.953 -2.105,-1.733 -2.445,-1.733c-0.778,0 -8.138,-7.888 -8.138,-8.722c0,-0.339 -0.522,-1.177 -1.162,-1.862c-1.313,-1.407 -3.447,-4.729 -4.974,-7.743c-0.565,-1.116 -1.352,-2.434 -1.749,-2.931c-0.874,-1.093 -9.146,-18.965 -9.146,-19.759c0,-0.308 -0.985,-2.63 -2.19,-5.159c-1.204,-2.53 -2.194,-4.966 -2.2,-5.414c0,-0.448 -0.773,-2.33 -1.704,-4.18c-0.93,-1.851 -1.692,-3.78 -1.692,-4.286c0,-0.507 -0.438,-1.757 -0.973,-2.778c-0.535,-1.021 -0.973,-2.215 -0.973,-2.653c0,-0.438 -0.548,-1.847 -1.217,-3.131c-0.669,-1.285 -1.216,-2.673 -1.216,-3.085c0,-0.71 -0.508,-2.047 -3.221,-8.481c-0.637,-1.512 -1.159,-3.083 -1.159,-3.492c0,-0.409 -0.547,-1.846 -1.216,-3.195c-0.669,-1.348 -1.217,-2.724 -1.217,-3.058c0,-0.334 -0.438,-1.578 -0.973,-2.765c-0.535,-1.187 -0.973,-2.404 -0.973,-2.705c0,-0.3 -0.767,-2.157 -1.703,-4.127c-0.937,-1.969 -1.704,-3.94 -1.704,-4.379c0,-0.44 -0.544,-1.82 -1.21,-3.068c-0.666,-1.249 -1.214,-2.63 -1.217,-3.07c-0.015,-1.271 -5.983,-13.781 -7.315,-15.318c-1.875,-2.164 -2.635,-2.466 -4.307,-1.713c-1.489,0.671 -3.468,3.144 -4.463,5.576c-0.293,0.717 -0.871,1.703 -1.284,2.192c-0.923,1.093 -3.074,5.583 -3.074,6.417c0,0.335 -0.972,2.701 -2.159,5.256c-1.997,4.301 -2.519,5.628 -4.182,10.644c-0.333,1.004 -1.123,2.938 -1.755,4.298c-0.633,1.36 -1.15,2.82 -1.15,3.243c0,0.424 -0.438,1.606 -0.973,2.627c-0.535,1.022 -0.973,2.21 -0.973,2.641c0,0.431 -0.548,1.941 -1.217,3.356c-0.669,1.415 -1.216,2.924 -1.216,3.354c0,0.429 -0.548,1.831 -1.217,3.116c-0.669,1.284 -1.217,2.693 -1.217,3.131c0,0.438 -0.438,1.632 -0.973,2.653c-0.535,1.021 -0.976,2.26 -0.979,2.753c0,0.494 -0.55,1.918 -1.216,3.167c-0.666,1.248 -1.211,2.608 -1.211,3.023c0,0.415 -0.438,1.725 -0.973,2.913c-0.536,1.187 -0.98,2.525 -0.989,2.973c0,0.448 -0.337,1.27 -0.73,1.827c-0.393,0.556 -0.714,1.391 -0.714,1.855c0,0.463 -0.766,2.471 -1.702,4.463c-0.936,1.991 -1.702,3.908 -1.703,4.261c0,0.937 -7.709,17.426 -8.718,18.652c-0.472,0.574 -1.31,2.099 -1.861,3.39c-0.552,1.29 -1.573,2.915 -2.269,3.61c-0.696,0.696 -1.265,1.495 -1.265,1.778c0,1.452 -11.574,13.905 -12.923,13.905c-0.218,0 -0.853,0.46 -1.411,1.022c-1.353,1.361 -10.665,6.278 -11.891,6.278c-0.533,0 -1.104,0.235 -1.269,0.522c-0.165,0.287 -0.999,0.53 -1.853,0.54c-0.855,0.009 -2.101,0.354 -2.77,0.763c-0.702,0.431 -2.563,0.753 -4.404,0.764c-1.753,0.01 -3.395,0.239 -3.649,0.509c-0.626,0.663 -9.001,1.069 -28.284,1.37c-10.759,0.168 -13.71,-0.235 -16.452,-0.283c0,0 0,0 0,0Zm-59.732,-80.612c-0.952,-2.21 -5.154,-11.133 -5.713,-13.261c-0.339,-1.291 -1.137,-3.434 -1.774,-4.764c-0.637,-1.329 -1.158,-2.799 -1.158,-3.266c0,-0.467 -0.198,-1.256 -0.439,-1.754c-0.242,-0.498 -0.706,-1.962 -1.032,-3.252c-0.326,-1.291 -1.114,-3.435 -1.751,-4.764c-0.637,-1.329 -1.158,-2.899 -1.158,-3.489c0,-0.59 -0.219,-1.217 -0.486,-1.394c-0.268,-0.177 -0.49,-0.837 -0.493,-1.465c-0.003,-0.628 -0.55,-2.164 -1.216,-3.412c-0.666,-1.248 -1.211,-2.609 -1.211,-3.023c0,-0.415 -0.438,-1.726 -0.973,-2.913c-0.535,-1.187 -0.98,-2.525 -0.989,-2.973c-0.009,-0.448 -0.337,-1.27 -0.73,-1.827c-0.393,-0.557 -0.714,-1.392 -0.714,-1.857c0,-0.465 -0.438,-1.817 -0.974,-3.004c-0.535,-1.187 -0.973,-2.625 -0.973,-3.196c0,-0.571 -0.219,-1.182 -0.486,-1.36c-0.268,-0.177 -0.488,-0.719 -0.49,-1.204c-0.001,-0.485 -0.33,-1.553 -0.73,-2.375c-0.4,-0.821 -0.727,-1.822 -0.727,-2.223c0,-0.401 -0.197,-1.137 -0.439,-1.635c-0.242,-0.498 -0.719,-1.962 -1.061,-3.252c-0.342,-1.291 -1.13,-3.454 -1.751,-4.806c-0.62,-1.353 -1.128,-2.923 -1.128,-3.489c0,-0.566 -0.194,-1.158 -0.431,-1.315c-0.237,-0.157 -0.54,-0.933 -0.675,-1.725c-0.134,-0.793 -0.687,-2.614 -1.227,-4.048c-0.541,-1.434 -1.252,-3.428 -1.58,-4.432c-0.329,-1.004 -0.787,-2.233 -1.019,-2.731c-0.231,-0.498 -0.421,-1.283 -0.421,-1.744c0,-0.462 -0.298,-1.462 -0.662,-2.224c-0.365,-0.761 -0.892,-2.088 -1.171,-2.948c-1.344,-4.136 -1.812,-5.399 -2.867,-7.739c-0.627,-1.389 -1.139,-2.849 -1.139,-3.244c0,-0.395 -0.412,-1.503 -0.915,-2.464c-0.504,-0.96 -1.068,-2.489 -1.254,-3.399c-0.187,-0.909 -0.541,-1.787 -0.789,-1.951c-0.247,-0.163 -0.449,-1.208 -0.449,-2.321c0,-1.114 -0.219,-2.17 -0.486,-2.347c-0.268,-0.177 -0.487,-1.134 -0.487,-2.127c0,-1.027 -0.524,-2.695 -1.216,-3.87c-0.67,-1.135 -1.217,-2.532 -1.217,-3.102c0,-0.571 -0.438,-1.873 -0.973,-2.894c-0.535,-1.021 -0.973,-2.274 -0.973,-2.784c0,-0.51 -0.322,-1.383 -0.715,-1.94c-0.393,-0.557 -0.721,-1.379 -0.73,-1.827c-0.009,-0.448 -0.565,-2.037 -1.237,-3.53c-1.522,-3.38 -2.686,-6.686 -3.017,-8.567c-0.139,-0.793 -0.447,-1.569 -0.683,-1.726c-0.237,-0.157 -0.431,-1.196 -0.431,-2.309c0,-1.113 -0.219,-2.169 -0.487,-2.347c-0.267,-0.177 -0.493,-0.836 -0.502,-1.464c-0.009,-0.629 -0.337,-1.598 -0.73,-2.155c-0.393,-0.557 -0.714,-1.415 -0.714,-1.906c0,-0.492 -0.415,-1.796 -0.922,-2.899c-0.507,-1.102 -1.204,-3.06 -1.549,-4.351c-0.345,-1.291 -1.135,-3.505 -1.755,-4.921c-0.62,-1.416 -1.127,-2.986 -1.127,-3.489c0,-0.503 -0.219,-1.06 -0.486,-1.237c-0.268,-0.177 -0.487,-0.85 -0.487,-1.495c0,-0.646 -0.322,-1.629 -0.714,-2.186c-0.393,-0.556 -0.722,-1.434 -0.73,-1.95c-0.009,-0.515 -0.454,-1.909 -0.989,-3.096c-0.535,-1.187 -0.98,-2.525 -0.989,-2.973c-0.009,-0.448 -0.337,-1.27 -0.73,-1.827c-0.393,-0.556 -0.714,-1.44 -0.714,-1.962c0,-0.523 -0.198,-1.358 -0.439,-1.856c-0.242,-0.498 -0.701,-1.961 -1.021,-3.252c-0.32,-1.291 -0.779,-2.754 -1.021,-3.252c-0.241,-0.498 -0.439,-1.178 -0.439,-1.512c0,-0.334 -0.52,-1.804 -1.155,-3.266c-0.636,-1.463 -1.498,-3.833 -1.916,-5.267c-0.695,-2.385 -1.372,-4.546 -2.287,-7.3c-0.83,-2.5 -1.454,-4.814 -1.454,-5.392c0,-0.344 -0.548,-1.555 -1.217,-2.69c-0.669,-1.136 -1.216,-2.543 -1.216,-3.126c0,-0.583 -0.201,-1.468 -0.447,-1.966c-0.245,-0.498 -0.813,-2.254 -1.261,-3.902c-0.449,-1.649 -1.014,-3.129 -1.257,-3.29c-0.243,-0.161 -0.442,-0.969 -0.442,-1.796c0,-0.826 -0.219,-1.647 -0.486,-1.825c-0.268,-0.177 -0.487,-0.881 -0.487,-1.564c0,-0.683 -0.194,-1.37 -0.43,-1.527c-0.237,-0.157 -0.541,-0.933 -0.675,-1.726c-0.135,-0.792 -0.708,-2.727 -1.273,-4.301c-0.566,-1.573 -1.028,-3.495 -1.028,-4.271c0,-0.775 -0.219,-1.555 -0.487,-1.732c-0.267,-0.178 -0.486,-0.899 -0.486,-1.603c0,-0.704 -0.193,-1.687 -0.428,-2.185c-1.037,-2.198 -2.006,-4.914 -2.006,-5.623c0,-0.425 -0.193,-1.179 -0.429,-1.677c-0.866,-1.83 -2.608,-7.741 -2.84,-9.643c-0.132,-1.078 -0.435,-2.089 -0.675,-2.247c-0.239,-0.159 -0.435,-1.434 -0.435,-2.834c0,-1.4 -0.219,-2.691 -0.487,-2.868c-0.267,-0.177 -0.486,-1.585 -0.486,-3.129c0,-1.543 0.219,-2.951 0.486,-3.128c0.268,-0.178 0.487,-2.055 0.487,-4.172c0,-2.117 0.219,-3.994 0.487,-4.172c0.267,-0.177 0.493,-0.836 0.502,-1.464c0.009,-0.629 0.337,-1.598 0.73,-2.155c0.393,-0.557 0.714,-1.429 0.714,-1.939c0,-0.511 0.438,-1.763 0.973,-2.785c0.536,-1.021 0.973,-2.395 0.973,-3.053c0,-0.659 0.548,-1.748 1.217,-2.422c0.669,-0.673 1.217,-1.499 1.217,-1.835c0,-0.336 0.437,-1.035 0.973,-1.554c0.535,-0.519 0.973,-1.173 0.973,-1.452c0,-0.279 0.766,-1.417 1.703,-2.528c0.937,-1.111 1.703,-2.306 1.703,-2.655c0,-0.817 5.383,-6.662 6.136,-6.662c0.313,0 1.415,-0.816 2.448,-1.813c1.033,-0.997 2.118,-1.818 2.411,-1.825c0.293,-0.007 0.944,-0.498 1.445,-1.092c0.882,-1.044 5.561,-3.613 6.581,-3.613c0.275,0 1.48,-0.587 2.679,-1.304c1.198,-0.717 2.612,-1.303 3.141,-1.303c0.53,0 1.343,-0.212 1.808,-0.471c0.465,-0.259 1.83,-0.743 3.035,-1.075c1.204,-0.332 2.846,-0.863 3.649,-1.179c0.803,-0.315 2.774,-0.673 4.38,-0.794c1.606,-0.121 3.127,-0.434 3.382,-0.697c0.645,-0.667 27.375,-0.625 27.761,0.044c0.165,0.287 1.577,0.521 3.136,0.521c1.569,0 3.458,0.348 4.229,0.779c0.767,0.429 1.983,0.781 2.703,0.782c0.721,0.002 1.445,0.238 1.611,0.525c0.165,0.287 0.822,0.522 1.459,0.522c0.638,0 1.295,0.234 1.46,0.521c0.166,0.287 0.781,0.518 1.367,0.513c0.587,-0.005 2.161,0.559 3.499,1.251c1.339,0.692 2.981,1.52 3.65,1.84c1.74,0.831 5.593,3.293 6.646,4.247c0.493,0.447 1.502,1.088 2.242,1.427c0.74,0.338 1.602,1.263 1.915,2.056c0.314,0.793 1.213,2.185 1.997,3.094c0.784,0.908 1.674,2.116 1.977,2.683c0.739,1.382 4.107,6.814 5.233,8.44c0.496,0.717 1.343,2.287 1.881,3.488c0.537,1.201 1.18,2.319 1.428,2.483c0.595,0.394 9.284,19.029 9.284,19.91c0,0.375 0.438,1.516 0.973,2.538c0.535,1.021 0.973,2.657 0.973,3.635c0,0.978 0.219,1.923 0.487,2.101c0.268,0.177 0.487,0.719 0.488,1.204c0.001,0.485 0.767,2.51 1.703,4.502c0.936,1.991 1.702,3.898 1.702,4.239c0,0.34 0.762,2.231 1.694,4.201c0.932,1.971 1.698,4.097 1.703,4.725c0,0.629 0.204,1.272 0.442,1.429c0.238,0.158 0.573,0.934 0.745,1.726c0.172,0.791 0.721,2.377 1.221,3.524c0.5,1.148 1.279,3.435 1.733,5.084c0.453,1.648 1.023,3.128 1.266,3.289c0.243,0.161 0.442,0.858 0.442,1.55c0,0.691 0.438,2.092 0.973,3.114c0.535,1.021 0.973,2.19 0.973,2.597c0,0.408 0.746,2.336 1.659,4.286c0.912,1.95 2.027,4.894 2.478,6.543c0.45,1.648 1.018,3.129 1.261,3.29c0.243,0.16 0.441,0.868 0.441,1.572c0,0.704 0.198,1.687 0.44,2.185c0.241,0.498 0.724,1.962 1.074,3.252c0.349,1.291 1.136,3.437 1.75,4.769c0.614,1.332 1.116,2.792 1.116,3.243c0,0.452 0.438,1.657 0.973,2.678c0.535,1.021 0.973,2.107 0.973,2.414c0,0.306 0.301,1.296 0.667,2.2c0.367,0.904 0.936,2.699 1.264,3.99c0.329,1.29 0.795,2.754 1.036,3.252c1.088,2.241 0.41,7.514 -1.56,12.13c-0.489,1.148 -1.03,2.734 -1.202,3.525c-0.172,0.792 -0.507,1.568 -0.745,1.726c-0.238,0.157 -0.433,0.753 -0.433,1.324c0,0.57 -0.438,2.008 -0.973,3.195c-0.535,1.188 -0.98,2.525 -0.989,2.974c-0.015,0.448 -0.337,1.27 -0.73,1.826c-0.393,0.557 -0.714,1.44 -0.714,1.963c0,0.522 -0.198,1.358 -0.439,1.856c-0.242,0.498 -0.702,1.961 -1.023,3.251c-0.321,1.291 -1.109,3.46 -1.751,4.82c-0.642,1.36 -1.167,2.93 -1.167,3.489c0,0.559 -0.219,1.161 -0.486,1.338c-0.268,0.178 -0.487,0.786 -0.487,1.352c0,0.566 -0.508,2.136 -1.129,3.489c-0.62,1.353 -1.409,3.515 -1.752,4.806c-0.344,1.291 -1.15,3.459 -1.791,4.82c-0.642,1.36 -1.167,2.93 -1.167,3.489c0,0.558 -0.219,1.161 -0.487,1.338c-0.268,0.177 -0.486,0.771 -0.486,1.319c0,0.548 -0.514,2.235 -1.141,3.749c-0.627,1.515 -1.429,3.575 -1.781,4.578c-0.352,1.004 -0.825,2.048 -1.049,2.321c-0.225,0.272 -0.409,1.021 -0.409,1.664c0,0.643 -0.219,1.313 -0.487,1.491c-0.267,0.177 -0.486,0.899 -0.486,1.605c0,0.706 -0.548,2.213 -1.217,3.348c-0.669,1.136 -1.216,2.643 -1.216,3.349c0,0.705 -0.219,1.428 -0.487,1.605c-0.268,0.177 -0.487,0.765 -0.487,1.307c0,0.541 -0.547,2.088 -1.216,3.436c-0.669,1.349 -1.217,2.873 -1.217,3.386c0,0.514 -0.219,1.08 -0.486,1.257c-0.268,0.177 -0.487,0.999 -0.487,1.825c0,0.827 -0.219,1.648 -0.486,1.825c-0.268,0.178 -0.494,0.837 -0.502,1.465c-0.016,0.628 -0.337,1.598 -0.73,2.155c-0.393,0.556 -0.715,1.381 -0.715,1.833c0,0.451 -0.639,2.225 -1.42,3.941c-1.313,2.883 -1.756,4.045 -3.474,9.118c-0.34,1.003 -0.911,2.564 -1.269,3.468c-0.357,0.904 -0.649,2.004 -0.649,2.446c0,0.442 -0.219,0.948 -0.487,1.125c-0.268,0.177 -0.487,0.734 -0.487,1.237c0,0.502 -0.438,1.885 -0.973,3.072c-0.535,1.188 -0.98,2.581 -0.988,3.097c-0.016,0.515 -0.337,1.393 -0.73,1.949c-0.393,0.557 -0.715,1.43 -0.715,1.94c0,0.51 -0.438,1.763 -0.973,2.784c-0.535,1.021 -0.976,2.26 -0.979,2.754c0,0.493 -0.551,1.918 -1.217,3.166c-0.666,1.248 -1.21,2.608 -1.21,3.023c0,0.415 -0.438,1.726 -0.974,2.913c-0.535,1.187 -0.98,2.525 -0.988,2.973c-0.015,0.448 -0.337,1.27 -0.73,1.827c-0.393,0.556 -0.715,1.429 -0.715,1.939c0,0.51 -0.438,1.763 -0.973,2.784c-0.535,1.022 -0.98,2.378 -0.989,3.015c-0.015,0.636 -0.337,1.613 -0.729,2.169c-0.393,0.557 -0.715,1.331 -0.715,1.72c0,0.389 -0.438,1.679 -0.973,2.866c-0.536,1.188 -0.973,2.57 -0.973,3.073c0,0.503 -0.203,1.048 -0.45,1.212c-0.247,0.163 -0.601,1.041 -0.788,1.951c-0.186,0.909 -0.75,2.439 -1.254,3.399c-0.503,0.96 -0.915,2.311 -0.915,3.003c0,0.691 -0.219,1.402 -0.486,1.579c-0.268,0.177 -0.494,0.836 -0.502,1.465c-0.016,0.628 -0.337,1.598 -0.73,2.154c-0.393,0.557 -0.715,1.541 -0.715,2.186c0,0.645 -0.219,1.318 -0.486,1.495c-0.268,0.177 -0.487,0.809 -0.487,1.404c0,1.342 -3.146,8.088 -4.513,9.677c-0.959,1.115 -2.417,0.731 -2.9,0.877c0,0 0,0 0,0Z" style="fill:#333;fill-rule:nonzero;"/></g></g></g></svg>