<?xml version="1.0" encoding="UTF-8" standalone="no"?><!DOCTYPE svg PUBLIC "-//W3C//DTD SVG 1.1//EN" "http://www.w3.org/Graphics/SVG/1.1/DTD/svg11.dtd"><svg width="100%" height="100%" viewBox="0 0 4350 759" version="1.1" xmlns="http://www.w3.org/2000/svg" xmlns:xlink="http://www.w3.org/1999/xlink" xml:space="preserve" xmlns:serif="http://www.serif.com/" style="fill-rule:evenodd;clip-rule:evenodd;stroke-linejoin:round;stroke-miterlimit:2;"><g><g id="Capa1"><g><ellipse id="primario" cx="384.488" cy="379.205" rx="384.488" ry="379.205" style="fill:#333;"/><ellipse id="secundario" cx="384.488" cy="379.205" rx="344.437" ry="339.705" style="fill:#fff;"/><g id="w"><path id="path829" d="M252.821,630.119c-0.346,-0.086 -1.095,-0.513 -2.076,-0.513c-0.981,0 -1.912,-0.225 -2.068,-0.499c-0.156,-0.275 -0.737,-0.507 -1.291,-0.516c-0.554,-0.008 -1.409,-0.346 -1.899,-0.749c-0.491,-0.404 -1.208,-0.734 -1.593,-0.734c-0.992,0 -8.071,-3.823 -8.768,-4.735c-0.318,-0.418 -0.78,-0.76 -1.025,-0.76c-0.539,0 -2.319,-1.449 -5.674,-4.62c-1.38,-1.305 -2.738,-2.373 -3.018,-2.373c-0.73,0 -7.755,-7.54 -7.755,-8.324c0,-0.361 -0.983,-1.885 -2.183,-3.386c-2.918,-3.646 -4.252,-5.581 -4.252,-6.167c0,-0.266 -0.333,-0.785 -0.741,-1.153c-0.835,-0.753 -4.105,-7.958 -4.572,-10.073c-0.167,-0.758 -0.488,-1.502 -0.712,-1.653c-0.225,-0.151 -0.409,-0.81 -0.409,-1.464c0,-0.655 -0.207,-1.329 -0.46,-1.499c-0.269,-0.181 -0.459,-3.076 -0.459,-6.994c0,-3.917 0.19,-6.812 0.459,-6.993c0.253,-0.17 0.46,-0.835 0.46,-1.477c0,-0.643 0.514,-2.147 1.143,-3.343c0.629,-1.196 1.146,-2.666 1.149,-3.268c0,-0.602 0.213,-1.234 0.465,-1.404c0.253,-0.169 0.46,-0.724 0.46,-1.232c0,-0.508 0.492,-2.012 1.092,-3.342c0.601,-1.331 1.345,-3.431 1.654,-4.667c0.308,-1.236 0.748,-2.638 0.976,-3.115c0.228,-0.477 0.414,-1.187 0.414,-1.578c0,-0.39 0.492,-1.798 1.093,-3.129c0.6,-1.33 1.349,-3.43 1.664,-4.667c0.314,-1.236 1.064,-3.289 1.665,-4.563c0.602,-1.274 1.094,-2.778 1.094,-3.342c0,-0.565 0.207,-1.166 0.459,-1.336c0.253,-0.17 0.46,-0.703 0.46,-1.185c0,-0.482 0.479,-1.986 1.065,-3.342c0.585,-1.357 1.336,-3.478 1.668,-4.715c0.332,-1.236 1.094,-3.394 1.693,-4.795c0.599,-1.401 1.089,-2.809 1.089,-3.129c0,-0.32 0.179,-0.972 0.398,-1.449c0.219,-0.477 0.633,-1.598 0.919,-2.491c0.287,-0.893 0.757,-2.354 1.045,-3.247c0.288,-0.893 0.805,-2.22 1.149,-2.949c0.344,-0.729 0.626,-1.678 0.626,-2.108c0,-0.43 0.38,-1.519 0.845,-2.421c0.464,-0.901 0.961,-2.2 1.103,-2.887c0.142,-0.687 0.673,-2.373 1.18,-3.747c0.508,-1.373 1.176,-3.284 1.487,-4.246c0.31,-0.961 0.743,-2.139 0.961,-2.616c0.219,-0.477 0.398,-1.209 0.398,-1.627c0,-0.418 0.496,-1.826 1.103,-3.129c0.606,-1.303 1.354,-3.38 1.663,-4.617c0.309,-1.236 1.054,-3.29 1.656,-4.563c0.602,-1.274 1.094,-2.778 1.094,-3.343c0,-0.564 0.206,-1.166 0.459,-1.335c0.253,-0.17 0.46,-0.771 0.46,-1.336c0,-0.565 0.492,-2.069 1.094,-3.342c0.601,-1.274 1.346,-3.327 1.655,-4.564c0.309,-1.236 1.058,-3.314 1.664,-4.617c0.606,-1.303 1.102,-2.807 1.102,-3.342c0,-0.536 0.207,-1.113 0.46,-1.282c0.252,-0.17 0.459,-0.769 0.459,-1.331c0,-0.562 0.475,-2.066 1.054,-3.342c0.58,-1.277 1.328,-3.332 1.662,-4.569c0.334,-1.236 0.98,-3.147 1.435,-4.246c0.454,-1.099 0.931,-2.448 1.059,-2.997c0.443,-1.899 2.258,-6.995 2.66,-7.468c0.222,-0.261 0.41,-0.936 0.418,-1.499c0.014,-0.563 0.318,-1.46 0.689,-1.994c0.371,-0.533 0.675,-1.369 0.675,-1.858c0,-0.488 0.414,-1.689 0.919,-2.667c0.506,-0.978 0.919,-2.199 0.919,-2.712c0,-0.513 0.515,-1.911 1.144,-3.107c0.629,-1.195 1.146,-2.666 1.149,-3.268c0,-0.602 0.212,-1.234 0.465,-1.403c0.253,-0.17 0.46,-0.725 0.46,-1.233c0,-0.507 0.491,-2.012 1.092,-3.342c0.6,-1.33 1.345,-3.43 1.655,-4.667c0.31,-1.236 1.06,-3.314 1.666,-4.617c0.606,-1.303 1.102,-2.711 1.102,-3.129c0,-0.418 0.179,-1.15 0.398,-1.627c0.219,-0.477 0.652,-1.654 0.962,-2.616c0.31,-0.961 0.979,-2.872 1.486,-4.246c0.507,-1.374 1.039,-3.06 1.18,-3.746c0.143,-0.687 0.639,-1.987 1.104,-2.888c0.464,-0.901 0.845,-1.995 0.845,-2.43c0,-0.435 0.492,-1.833 1.093,-3.107c0.602,-1.274 1.347,-3.327 1.656,-4.563c0.309,-1.237 1.058,-3.315 1.664,-4.618c0.606,-1.303 1.102,-2.807 1.102,-3.342c0,-0.535 0.207,-1.112 0.459,-1.282c0.253,-0.17 0.46,-0.753 0.46,-1.295c0,-0.542 0.48,-2.046 1.066,-3.342c0.587,-1.296 1.337,-3.368 1.669,-4.605c0.331,-1.236 1.092,-3.394 1.691,-4.795c0.599,-1.401 1.089,-2.905 1.089,-3.342c0,-0.438 0.207,-0.934 0.46,-1.104c0.253,-0.17 0.459,-0.748 0.459,-1.284c0,-0.536 0.431,-2.04 0.957,-3.342c2.039,-5.046 2.261,-5.671 2.261,-6.366c0,-0.394 0.413,-1.517 0.919,-2.496c0.505,-0.978 0.926,-2.277 0.934,-2.887c0.014,-0.61 0.318,-1.545 0.689,-2.079c0.371,-0.533 0.675,-1.274 0.675,-1.647c0,-0.373 0.414,-1.609 0.919,-2.746c0.506,-1.137 0.919,-2.462 0.919,-2.944c0,-0.481 0.191,-1.004 0.425,-1.16c0.233,-0.157 0.568,-0.998 0.744,-1.869c0.176,-0.872 0.709,-2.337 1.184,-3.257c0.476,-0.92 0.865,-2.107 0.865,-2.639c0,-0.531 0.517,-1.972 1.149,-3.203c0.631,-1.23 1.149,-2.686 1.149,-3.235c0,-0.549 0.206,-1.137 0.459,-1.307c0.253,-0.17 0.46,-0.703 0.46,-1.185c0,-0.482 0.479,-1.986 1.064,-3.342c0.586,-1.357 1.332,-3.478 1.658,-4.715c0.326,-1.236 0.984,-3.112 1.463,-4.168c0.479,-1.056 0.87,-2.238 0.87,-2.626c0,-0.388 0.496,-1.772 1.103,-3.075c0.606,-1.303 1.354,-3.381 1.663,-4.617c0.309,-1.237 1.054,-3.29 1.656,-4.564c0.602,-1.273 1.094,-2.64 1.094,-3.037c0,-0.397 0.516,-1.828 1.147,-3.18c0.631,-1.351 1.148,-2.837 1.149,-3.302c0,-0.464 0.208,-0.983 0.461,-1.153c0.253,-0.17 0.46,-0.756 0.46,-1.303c0,-0.546 0.413,-1.924 0.919,-3.061c0.506,-1.138 0.919,-2.318 0.919,-2.622c0,-0.305 0.724,-2.091 1.609,-3.969c0.885,-1.878 1.608,-3.678 1.608,-4.001c0,-0.757 4.639,-10.872 5.508,-12.01c0.364,-0.476 0.876,-1.259 1.139,-1.74c1.269,-2.324 2.982,-4.857 3.865,-5.715c0.538,-0.523 0.978,-1.284 0.978,-1.691c0,-0.979 8.121,-9.974 9.882,-10.946c0.758,-0.418 1.999,-1.388 2.758,-2.155c1.663,-1.682 12.094,-7.485 13.456,-7.485c0.532,0 1.095,-0.225 1.251,-0.5c0.156,-0.274 0.777,-0.499 1.379,-0.499c0.602,0 1.222,-0.225 1.378,-0.5c0.157,-0.274 0.944,-0.507 1.751,-0.517c0.807,-0.009 1.984,-0.339 2.616,-0.732c0.632,-0.392 2.297,-0.721 3.699,-0.731c1.403,-0.01 2.768,-0.253 3.032,-0.54c0.314,-0.341 3.257,-0.446 8.48,-0.301c8.746,0.243 13.426,0.779 14.977,1.716c0.552,0.333 1.626,0.606 2.386,0.606c0.76,0 1.51,0.225 1.666,0.499c0.156,0.275 1.087,0.5 2.068,0.5c0.982,0 1.912,0.225 2.068,0.499c0.157,0.275 0.655,0.5 1.108,0.5c0.947,0 12.202,6.094 13.361,7.234c0.424,0.417 0.977,0.759 1.229,0.759c0.252,0 0.944,0.562 1.538,1.248c0.593,0.687 1.315,1.249 1.602,1.249c0.566,0 8.591,8.94 10.145,11.3c0.521,0.791 1.327,2.338 1.792,3.437c0.464,1.099 1.006,2.114 1.204,2.256c0.535,0.383 3.181,5.986 3.181,6.735c0,0.356 1.241,3.297 2.758,6.536c1.516,3.238 2.757,6.178 2.757,6.532c0,0.61 0.508,1.954 3.042,8.049c0.602,1.449 1.095,3.065 1.095,3.592c0,0.528 0.206,1.098 0.459,1.268c0.253,0.169 0.46,0.746 0.46,1.282c0,0.535 0.488,2.039 1.086,3.342c1.048,2.287 1.404,3.263 2.957,8.114c0.395,1.236 1.096,2.985 1.555,3.887c0.46,0.901 0.836,1.948 0.836,2.326c0,0.379 0.484,1.777 1.076,3.107c0.592,1.331 1.316,3.15 1.609,4.043c0.293,0.893 0.772,2.354 1.064,3.247c0.292,0.893 1.016,2.665 1.609,3.939c0.592,1.273 1.077,2.671 1.077,3.107c0,0.435 0.413,1.591 0.919,2.57c0.505,0.978 0.919,2.122 0.919,2.541c0,0.42 0.517,1.77 1.149,3c0.632,1.231 1.149,2.633 1.149,3.117c0,0.484 0.719,2.33 1.598,4.103c0.879,1.773 1.603,3.611 1.609,4.083c0,0.473 0.424,1.66 0.93,2.638c0.505,0.978 0.919,2.018 0.919,2.311c0,0.293 0.724,2.19 1.608,4.217c0.885,2.026 1.609,3.892 1.609,4.145c0,0.254 1.034,2.735 2.298,5.513c1.264,2.779 2.298,5.344 2.298,5.7c0,1.047 2.24,5.627 3.227,6.598c0.5,0.492 0.909,1.157 0.909,1.479c0,0.917 2.03,2.757 3.042,2.757c0.894,0 3.852,-2.866 3.852,-3.731c0,-0.24 0.314,-0.813 0.697,-1.273c0.915,-1.099 4.359,-8.477 4.359,-9.338c0,-0.368 0.724,-2.232 1.609,-4.141c0.884,-1.91 1.609,-3.759 1.611,-4.109c0,-0.35 0.725,-2.168 1.608,-4.039c0.884,-1.871 1.607,-3.714 1.607,-4.095c0,-0.381 0.517,-1.749 1.149,-3.041c0.631,-1.292 1.149,-2.61 1.149,-2.93c0,-0.32 0.413,-1.512 0.919,-2.649c0.505,-1.137 0.919,-2.37 0.919,-2.74c0,-0.369 0.719,-2.122 1.598,-3.895c0.879,-1.773 1.603,-3.609 1.609,-4.08c0,-0.471 0.527,-1.864 1.159,-3.094c0.632,-1.23 1.149,-2.58 1.149,-3c0,-0.419 0.414,-1.563 0.919,-2.541c0.506,-0.979 0.92,-2.117 0.92,-2.53c0,-0.413 0.517,-1.859 1.149,-3.215c0.632,-1.355 1.149,-2.801 1.149,-3.213c0,-0.411 0.517,-1.754 1.149,-2.985c0.632,-1.23 1.149,-2.58 1.149,-3c0,-0.419 0.413,-1.563 0.919,-2.541c0.505,-0.979 0.919,-2.117 0.919,-2.53c0,-0.413 0.517,-1.859 1.149,-3.215c0.632,-1.355 1.153,-2.753 1.158,-3.105c0,-0.353 0.728,-2.186 1.608,-4.073c0.88,-1.888 1.6,-3.736 1.6,-4.107c0,-0.37 0.414,-1.474 0.919,-2.452c0.506,-0.979 0.922,-2.166 0.925,-2.638c0,-0.473 0.52,-1.837 1.149,-3.033c0.629,-1.196 1.144,-2.518 1.144,-2.939c0,-0.421 0.724,-2.309 1.608,-4.196c0.885,-1.887 1.61,-3.711 1.611,-4.054c0,-0.847 7.618,-17.298 8.493,-18.348c0.383,-0.461 0.697,-1.066 0.697,-1.344c0,-0.935 8.937,-9.429 12.639,-12.012c2.365,-1.651 9.667,-5.636 10.326,-5.636c0.278,0 1.526,-0.562 2.773,-1.249c1.247,-0.687 2.742,-1.249 3.323,-1.249c0.581,0 2.191,-0.486 3.577,-1.08c1.387,-0.593 3.762,-1.174 5.279,-1.291c1.517,-0.116 2.954,-0.417 3.194,-0.668c0.24,-0.252 2.348,-0.458 4.684,-0.458c2.336,0 4.375,-0.225 4.531,-0.499c0.36,-0.633 8.169,-0.661 8.756,-0.032c0.24,0.258 2.608,0.573 5.262,0.701c5.616,0.27 9.469,0.882 10.886,1.728c0.552,0.33 1.625,0.6 2.385,0.6c0.76,0 1.51,0.225 1.666,0.499c0.157,0.275 0.777,0.5 1.379,0.5c0.602,0 1.223,0.225 1.379,0.499c0.156,0.275 0.768,0.5 1.359,0.5c0.591,0 1.975,0.559 3.075,1.243c1.1,0.683 2.331,1.245 2.734,1.249c0.893,0.007 3.51,1.385 3.886,2.045c0.149,0.263 1.27,1.027 2.49,1.7c3.307,1.821 5.976,3.908 8.268,6.464c1.127,1.257 2.316,2.285 2.643,2.285c0.326,0 0.593,0.286 0.593,0.636c0,0.35 1.655,2.424 3.677,4.609c2.022,2.185 3.677,4.171 3.677,4.412c0,0.242 0.517,1.107 1.149,1.924c0.632,0.816 1.149,1.776 1.149,2.134c0,0.357 0.306,0.925 0.68,1.263c0.862,0.777 1.914,3.056 2.305,4.993c0.167,0.824 0.494,1.626 0.727,1.783c0.233,0.157 0.424,0.82 0.424,1.475c0,0.654 0.207,1.329 0.46,1.498c0.253,0.17 0.46,1.182 0.46,2.248c0,1.067 0.206,2.079 0.459,2.248c0.585,0.393 0.618,14.859 0.036,15.511c-0.233,0.261 -0.528,2.048 -0.655,3.971c-0.293,4.427 -0.755,7.339 -1.275,8.046c-0.432,0.587 -1.243,4.205 -1.64,7.318c-0.132,1.032 -0.425,2.001 -0.651,2.153c-0.226,0.152 -0.411,1.149 -0.411,2.215c0,1.067 -0.207,2.078 -0.459,2.248c-0.253,0.17 -0.46,0.767 -0.46,1.326c0,0.56 -0.289,1.614 -0.642,2.344c-0.354,0.729 -0.891,2.337 -1.194,3.574c-0.303,1.236 -0.738,2.638 -0.966,3.115c-0.229,0.477 -0.422,1.264 -0.43,1.748c-0.014,0.485 -0.318,1.318 -0.689,1.851c-0.371,0.533 -0.675,1.475 -0.675,2.093c0,0.619 -0.207,1.263 -0.46,1.433c-0.252,0.17 -0.459,0.739 -0.459,1.264c0,0.525 -0.492,2.141 -1.094,3.592c-0.601,1.45 -1.35,3.536 -1.665,4.635c-0.314,1.099 -0.753,2.389 -0.974,2.866c-0.222,0.477 -0.404,1.215 -0.404,1.64c0,0.425 -0.479,1.833 -1.066,3.129c-0.586,1.296 -1.33,3.368 -1.653,4.604c-0.323,1.237 -0.774,2.638 -1.002,3.116c-0.228,0.477 -0.415,1.233 -0.415,1.68c0,0.448 -0.492,1.856 -1.094,3.129c-0.601,1.274 -1.345,3.327 -1.653,4.564c-0.308,1.236 -0.747,2.638 -0.975,3.115c-0.228,0.477 -0.414,1.229 -0.414,1.671c0,0.442 -0.29,1.401 -0.643,2.13c-0.353,0.729 -0.891,2.338 -1.196,3.574c-0.304,1.236 -1.049,3.314 -1.655,4.617c-0.607,1.303 -1.103,2.711 -1.103,3.129c0,0.418 -0.186,1.15 -0.414,1.627c-0.229,0.477 -0.667,1.879 -0.975,3.116c-0.308,1.236 -1.052,3.289 -1.653,4.563c-0.602,1.274 -1.094,2.682 -1.094,3.129c0,0.447 -0.187,1.204 -0.415,1.681c-0.228,0.477 -0.679,1.879 -1.002,3.115c-0.323,1.236 -1.067,3.308 -1.653,4.604c-0.587,1.296 -1.066,2.8 -1.066,3.343c0,0.542 -0.183,1.109 -0.407,1.259c-0.224,0.15 -0.511,0.894 -0.638,1.653c-0.126,0.759 -0.648,2.504 -1.159,3.878c-0.51,1.373 -1.182,3.284 -1.492,4.246c-0.31,0.961 -0.743,2.138 -0.962,2.615c-0.219,0.478 -0.398,1.278 -0.398,1.778c0,0.501 -0.304,1.347 -0.675,1.88c-0.371,0.534 -0.681,1.321 -0.689,1.75c-0.014,0.43 -0.428,1.711 -0.934,2.849c-0.506,1.137 -0.926,2.472 -0.934,2.966c-0.014,0.494 -0.318,1.334 -0.689,1.868c-0.371,0.533 -0.675,1.355 -0.675,1.826c0,0.471 -0.387,1.72 -0.86,2.777c-0.951,2.125 -2.789,7.717 -3.176,9.663c-0.137,0.687 -0.629,1.986 -1.094,2.888c-0.465,0.901 -0.845,1.99 -0.845,2.42c0,0.43 -0.289,1.379 -0.642,2.108c-0.353,0.729 -0.892,2.338 -1.196,3.574c-0.305,1.236 -1.05,3.314 -1.656,4.617c-0.606,1.303 -1.102,2.711 -1.102,3.129c0,0.418 -0.187,1.15 -0.415,1.627c-0.228,0.477 -0.666,1.879 -0.974,3.115c-0.308,1.237 -1.052,3.29 -1.654,4.564c-0.601,1.274 -1.093,2.778 -1.093,3.342c0,0.565 -0.207,1.166 -0.46,1.336c-0.253,0.17 -0.459,0.703 -0.459,1.185c0,0.482 -0.48,1.986 -1.065,3.342c-0.586,1.357 -1.33,3.478 -1.653,4.715c-0.324,1.236 -0.776,2.638 -1.004,3.115c-0.228,0.477 -0.415,1.187 -0.415,1.577c0,0.391 -0.491,1.799 -1.092,3.129c-0.601,1.331 -1.345,3.431 -1.653,4.667c-0.309,1.236 -0.748,2.638 -0.977,3.115c-0.228,0.477 -0.414,1.175 -0.414,1.549c0,0.375 -0.517,1.739 -1.149,3.031c-0.632,1.292 -1.149,2.773 -1.149,3.292c0,0.519 -0.207,1.082 -0.46,1.252c-0.253,0.17 -0.466,0.913 -0.474,1.653c-0.015,0.739 -0.318,1.78 -0.69,2.314c-0.371,0.533 -0.674,1.274 -0.674,1.647c0,0.373 -0.414,1.609 -0.92,2.746c-0.505,1.137 -0.919,2.462 -0.919,2.944c0,0.481 -0.183,0.998 -0.406,1.149c-0.224,0.15 -0.512,0.894 -0.64,1.653c-0.304,1.794 -2.167,7.237 -2.687,7.849c-0.222,0.261 -0.41,0.935 -0.418,1.498c0,0.563 -0.318,1.461 -0.689,1.994c-0.371,0.533 -0.675,1.334 -0.675,1.779c0,0.446 -0.414,1.741 -0.919,2.878c-0.506,1.137 -0.919,2.483 -0.919,2.991c0,0.508 -0.178,1.137 -0.396,1.398c-0.217,0.261 -0.763,1.711 -1.212,3.222c-0.45,1.511 -1.185,3.647 -1.634,4.746c-0.449,1.099 -0.921,2.448 -1.049,2.997c-0.443,1.898 -2.258,6.995 -2.66,7.468c-0.222,0.261 -0.403,0.978 -0.403,1.594c0,0.616 -0.191,1.248 -0.424,1.405c-0.234,0.156 -0.558,0.947 -0.722,1.756c-0.163,0.809 -0.696,2.37 -1.184,3.467c-0.488,1.098 -0.887,2.336 -0.887,2.751c0,0.416 -0.517,1.762 -1.149,2.993c-0.632,1.23 -1.149,2.686 -1.149,3.235c0,0.549 -0.207,1.137 -0.46,1.307c-0.253,0.17 -0.459,0.703 -0.459,1.185c0,0.481 -0.406,1.787 -0.901,2.901c-0.842,1.894 -1.365,3.326 -2.798,7.653c-0.318,0.962 -1.271,3.289 -2.117,5.172c-0.846,1.883 -1.538,3.721 -1.538,4.085c0,0.364 -0.724,2.171 -1.609,4.016c-0.884,1.845 -1.608,3.685 -1.608,4.088c0,1.078 -7.162,16.411 -9.122,19.53c-0.923,1.47 -1.925,3.156 -2.227,3.747c-0.671,1.316 -12.769,14.175 -14.64,15.561c-2.176,1.611 -6.245,3.746 -7.14,3.746c-0.455,0 -0.955,0.225 -1.112,0.5c-0.156,0.275 -0.88,0.499 -1.608,0.499c-0.729,0 -1.453,0.225 -1.609,0.5c-0.156,0.275 -1.151,0.507 -2.21,0.517c-1.06,0.009 -2.443,0.339 -3.075,0.732c-0.713,0.443 -2.49,0.72 -4.684,0.731c-1.944,0.01 -3.663,0.243 -3.819,0.518c-0.182,0.32 -7.349,0.499 -19.993,0.499c-12.643,0 -19.81,-0.179 -19.992,-0.499c-0.157,-0.275 -1.461,-0.508 -2.9,-0.518c-1.439,-0.009 -3.133,-0.339 -3.765,-0.731c-0.632,-0.393 -1.809,-0.722 -2.615,-0.732c-0.807,-0.009 -1.595,-0.242 -1.751,-0.517c-0.156,-0.275 -0.777,-0.5 -1.379,-0.5c-0.602,0 -1.222,-0.224 -1.378,-0.499c-0.157,-0.275 -0.763,-0.5 -1.348,-0.5c-1.364,0 -5.053,-2.199 -7.271,-4.334c-0.949,-0.913 -1.988,-1.66 -2.309,-1.66c-0.735,0 -7.686,-7.557 -7.686,-8.356c0,-0.325 -0.494,-1.127 -1.098,-1.784c-1.24,-1.347 -3.256,-4.53 -4.699,-7.418c-0.533,-1.068 -1.277,-2.332 -1.652,-2.808c-0.824,-1.046 -8.638,-18.168 -8.638,-18.928c0,-0.296 -0.93,-2.52 -2.068,-4.943c-1.137,-2.423 -2.073,-4.757 -2.078,-5.186c0,-0.43 -0.73,-2.232 -1.609,-4.005c-0.879,-1.773 -1.598,-3.621 -1.598,-4.106c0,-0.485 -0.414,-1.683 -0.919,-2.661c-0.506,-0.978 -0.92,-2.122 -0.92,-2.542c0,-0.419 -0.517,-1.769 -1.149,-2.999c-0.632,-1.231 -1.149,-2.56 -1.149,-2.955c0,-0.681 -0.479,-1.961 -3.041,-8.125c-0.602,-1.448 -1.095,-2.954 -1.095,-3.345c0,-0.392 -0.517,-1.769 -1.149,-3.061c-0.632,-1.292 -1.149,-2.61 -1.149,-2.93c0,-0.319 -0.414,-1.511 -0.919,-2.649c-0.506,-1.137 -0.919,-2.303 -0.919,-2.59c0,-0.288 -0.724,-2.067 -1.609,-3.954c-0.885,-1.887 -1.609,-3.775 -1.609,-4.196c0,-0.421 -0.514,-1.743 -1.143,-2.939c-0.629,-1.196 -1.146,-2.519 -1.149,-2.94c-0.014,-1.219 -5.651,-13.203 -6.909,-14.675c-1.771,-2.073 -2.489,-2.363 -4.069,-1.641c-1.405,0.642 -3.275,3.012 -4.215,5.342c-0.277,0.686 -0.822,1.631 -1.212,2.099c-0.872,1.047 -2.904,5.349 -2.904,6.148c0,0.321 -0.917,2.587 -2.039,5.036c-1.886,4.12 -2.379,5.39 -3.95,10.196c-0.315,0.962 -1.06,2.815 -1.658,4.118c-0.597,1.303 -1.085,2.701 -1.085,3.107c0,0.405 -0.414,1.538 -0.92,2.516c-0.505,0.979 -0.919,2.117 -0.919,2.53c0,0.413 -0.517,1.859 -1.149,3.215c-0.632,1.355 -1.149,2.801 -1.149,3.213c0,0.411 -0.517,1.754 -1.149,2.985c-0.632,1.23 -1.149,2.58 -1.149,2.999c0,0.42 -0.413,1.564 -0.919,2.542c-0.506,0.978 -0.922,2.165 -0.925,2.638c0,0.472 -0.52,1.837 -1.149,3.033c-0.629,1.196 -1.143,2.499 -1.143,2.896c0,0.398 -0.414,1.653 -0.919,2.791c-0.506,1.137 -0.926,2.419 -0.934,2.848c0,0.429 -0.318,1.217 -0.69,1.75c-0.371,0.533 -0.674,1.333 -0.674,1.777c0,0.444 -0.724,2.368 -1.608,4.276c-0.884,1.907 -1.607,3.744 -1.608,4.082c0,0.898 -7.281,16.694 -8.234,17.869c-0.446,0.549 -1.237,2.01 -1.758,3.247c-0.521,1.236 -1.485,2.793 -2.143,3.459c-0.657,0.666 -1.195,1.432 -1.195,1.703c0,1.391 -10.931,13.321 -12.206,13.321c-0.206,0 -0.805,0.44 -1.332,0.978c-1.278,1.305 -10.073,6.015 -11.231,6.015c-0.503,0 -1.042,0.225 -1.199,0.5c-0.156,0.275 -0.944,0.507 -1.75,0.517c-0.807,0.009 -1.984,0.339 -2.616,0.732c-0.663,0.412 -2.421,0.721 -4.159,0.731c-1.656,0.01 -3.207,0.229 -3.447,0.488c-0.591,0.635 -8.501,1.024 -26.715,1.312c-10.161,0.161 -12.948,-0.225 -15.538,-0.27c0,0 0,0 0,0Zm-56.417,-77.226c-0.899,-2.118 -4.867,-10.666 -5.395,-12.705c-0.32,-1.236 -1.074,-3.29 -1.676,-4.563c-0.602,-1.274 -1.094,-2.682 -1.094,-3.129c0,-0.447 -0.186,-1.204 -0.415,-1.681c-0.228,-0.477 -0.666,-1.879 -0.974,-3.115c-0.308,-1.237 -1.052,-3.29 -1.653,-4.564c-0.602,-1.273 -1.094,-2.777 -1.094,-3.342c0,-0.565 -0.207,-1.166 -0.46,-1.336c-0.253,-0.17 -0.462,-0.801 -0.465,-1.403c-0.003,-0.602 -0.52,-2.073 -1.149,-3.268c-0.629,-1.196 -1.143,-2.5 -1.143,-2.897c0,-0.397 -0.414,-1.653 -0.92,-2.79c-0.505,-1.138 -0.925,-2.419 -0.933,-2.849c-0.009,-0.429 -0.319,-1.216 -0.69,-1.75c-0.371,-0.533 -0.675,-1.334 -0.675,-1.779c0,-0.445 -0.413,-1.74 -0.919,-2.878c-0.505,-1.137 -0.919,-2.515 -0.919,-3.061c0,-0.547 -0.207,-1.133 -0.46,-1.303c-0.252,-0.169 -0.46,-0.689 -0.462,-1.153c-0.001,-0.465 -0.312,-1.489 -0.689,-2.276c-0.378,-0.787 -0.687,-1.745 -0.687,-2.13c0,-0.384 -0.187,-1.089 -0.415,-1.566c-0.228,-0.477 -0.679,-1.879 -1.002,-3.115c-0.323,-1.237 -1.067,-3.309 -1.653,-4.604c-0.587,-1.296 -1.066,-2.8 -1.066,-3.343c0,-0.542 -0.183,-1.109 -0.407,-1.259c-0.224,-0.15 -0.511,-0.894 -0.638,-1.653c-0.127,-0.759 -0.648,-2.504 -1.159,-3.878c-0.511,-1.373 -1.182,-3.284 -1.492,-4.246c-0.31,-0.961 -0.743,-2.139 -0.962,-2.616c-0.219,-0.477 -0.398,-1.229 -0.398,-1.671c0,-0.442 -0.282,-1.401 -0.626,-2.13c-0.344,-0.729 -0.841,-2 -1.105,-2.824c-1.269,-3.962 -1.711,-5.173 -2.708,-7.415c-0.592,-1.33 -1.076,-2.728 -1.076,-3.107c0,-0.378 -0.389,-1.44 -0.865,-2.36c-0.475,-0.92 -1.008,-2.385 -1.184,-3.257c-0.176,-0.871 -0.511,-1.712 -0.744,-1.869c-0.234,-0.156 -0.425,-1.157 -0.425,-2.224c0,-1.066 -0.206,-2.078 -0.459,-2.248c-0.253,-0.169 -0.46,-1.086 -0.46,-2.037c0,-0.984 -0.495,-2.582 -1.149,-3.707c-0.632,-1.088 -1.149,-2.426 -1.149,-2.973c0,-0.546 -0.413,-1.794 -0.919,-2.772c-0.505,-0.978 -0.919,-2.179 -0.919,-2.667c0,-0.489 -0.304,-1.325 -0.675,-1.858c-0.371,-0.534 -0.681,-1.321 -0.689,-1.751c-0.009,-0.429 -0.534,-1.951 -1.169,-3.381c-1.438,-3.239 -2.537,-6.405 -2.849,-8.208c-0.132,-0.759 -0.422,-1.503 -0.646,-1.653c-0.224,-0.15 -0.407,-1.146 -0.407,-2.212c0,-1.067 -0.206,-2.078 -0.459,-2.248c-0.253,-0.17 -0.466,-0.801 -0.474,-1.403c-0.009,-0.602 -0.319,-1.531 -0.69,-2.064c-0.371,-0.534 -0.675,-1.356 -0.675,-1.827c0,-0.471 -0.391,-1.72 -0.87,-2.776c-0.479,-1.057 -1.137,-2.932 -1.463,-4.169c-0.326,-1.236 -1.072,-3.358 -1.658,-4.714c-0.585,-1.357 -1.064,-2.861 -1.064,-3.342c0,-0.482 -0.207,-1.016 -0.46,-1.185c-0.253,-0.17 -0.459,-0.815 -0.459,-1.433c0,-0.618 -0.304,-1.56 -0.675,-2.094c-0.371,-0.533 -0.682,-1.373 -0.69,-1.868c-0.008,-0.494 -0.428,-1.828 -0.933,-2.966c-0.506,-1.137 -0.926,-2.419 -0.934,-2.848c-0.009,-0.429 -0.319,-1.217 -0.69,-1.75c-0.371,-0.533 -0.674,-1.379 -0.674,-1.88c0,-0.501 -0.187,-1.301 -0.415,-1.778c-0.228,-0.477 -0.662,-1.879 -0.964,-3.115c-0.302,-1.237 -0.736,-2.638 -0.964,-3.116c-0.228,-0.477 -0.415,-1.129 -0.415,-1.448c0,-0.32 -0.491,-1.728 -1.091,-3.129c-0.601,-1.401 -1.415,-3.672 -1.81,-5.045c-0.656,-2.286 -1.296,-4.356 -2.16,-6.994c-0.784,-2.395 -1.373,-4.612 -1.373,-5.166c0,-0.329 -0.518,-1.489 -1.149,-2.577c-0.632,-1.088 -1.149,-2.435 -1.149,-2.994c0,-0.559 -0.19,-1.406 -0.422,-1.883c-0.232,-0.477 -0.768,-2.16 -1.191,-3.739c-0.424,-1.579 -0.958,-2.998 -1.188,-3.152c-0.229,-0.154 -0.417,-0.928 -0.417,-1.72c0,-0.791 -0.207,-1.578 -0.459,-1.748c-0.253,-0.17 -0.46,-0.844 -0.46,-1.499c0,-0.654 -0.183,-1.312 -0.407,-1.463c-0.223,-0.15 -0.51,-0.894 -0.637,-1.653c-0.127,-0.759 -0.668,-2.613 -1.202,-4.12c-0.534,-1.507 -0.971,-3.348 -0.971,-4.092c0,-0.743 -0.207,-1.49 -0.46,-1.66c-0.252,-0.169 -0.459,-0.86 -0.459,-1.535c0,-0.674 -0.182,-1.616 -0.404,-2.093c-0.979,-2.106 -1.894,-4.708 -1.894,-5.387c0,-0.407 -0.183,-1.13 -0.406,-1.607c-0.818,-1.752 -2.463,-7.415 -2.682,-9.238c-0.125,-1.032 -0.412,-2 -0.638,-2.152c-0.226,-0.152 -0.411,-1.374 -0.411,-2.715c0,-1.341 -0.207,-2.578 -0.459,-2.747c-0.253,-0.17 -0.46,-1.519 -0.46,-2.998c0,-1.478 0.207,-2.827 0.46,-2.997c0.252,-0.17 0.459,-1.968 0.459,-3.996c0,-2.028 0.207,-3.827 0.46,-3.997c0.253,-0.169 0.466,-0.801 0.474,-1.403c0.009,-0.602 0.318,-1.531 0.689,-2.064c0.372,-0.533 0.675,-1.369 0.675,-1.858c0,-0.489 0.414,-1.689 0.919,-2.667c0.506,-0.979 0.92,-2.295 0.92,-2.926c0,-0.63 0.517,-1.674 1.149,-2.319c0.632,-0.646 1.149,-1.437 1.149,-1.758c0,-0.322 0.413,-0.992 0.919,-1.489c0.505,-0.498 0.919,-1.123 0.919,-1.391c0,-0.268 0.724,-1.357 1.609,-2.422c0.884,-1.064 1.608,-2.209 1.608,-2.543c0,-0.783 5.085,-6.383 5.795,-6.383c0.296,0 1.337,-0.781 2.312,-1.736c0.976,-0.956 2.001,-1.742 2.278,-1.749c0.277,-0.006 0.891,-0.477 1.365,-1.046c0.832,-1 5.252,-3.461 6.215,-3.461c0.26,0 1.398,-0.562 2.53,-1.249c1.132,-0.687 2.468,-1.249 2.968,-1.249c0.5,0 1.268,-0.203 1.707,-0.451c0.439,-0.248 1.729,-0.711 2.866,-1.03c1.138,-0.318 2.689,-0.826 3.447,-1.129c0.758,-0.302 2.62,-0.645 4.136,-0.76c1.517,-0.116 2.955,-0.417 3.195,-0.668c0.61,-0.639 25.856,-0.599 26.22,0.042c0.156,0.274 1.489,0.499 2.962,0.499c1.482,0 3.266,0.333 3.994,0.746c0.724,0.411 1.873,0.748 2.554,0.75c0.68,0.001 1.364,0.228 1.52,0.502c0.157,0.275 0.777,0.5 1.379,0.5c0.602,0 1.223,0.225 1.379,0.499c0.156,0.275 0.737,0.496 1.291,0.492c0.554,-0.005 2.041,0.535 3.305,1.198c1.264,0.663 2.815,1.456 3.447,1.763c1.644,0.796 5.283,3.155 6.277,4.069c0.466,0.427 1.419,1.042 2.118,1.366c0.699,0.324 1.513,1.21 1.809,1.97c0.296,0.76 1.145,2.093 1.885,2.964c0.741,0.87 1.581,2.027 1.868,2.57c0.698,1.325 3.879,6.529 4.942,8.086c0.469,0.687 1.269,2.19 1.777,3.341c0.507,1.151 1.115,2.222 1.349,2.38c0.561,0.377 8.768,18.229 8.768,19.073c0,0.359 0.414,1.452 0.92,2.431c0.505,0.978 0.919,2.545 0.919,3.482c0,0.937 0.207,1.843 0.459,2.013c0.253,0.17 0.461,0.689 0.461,1.153c0.001,0.465 0.725,2.406 1.609,4.313c0.884,1.908 1.607,3.735 1.607,4.061c0,0.326 0.72,2.137 1.6,4.025c0.88,1.888 1.604,3.925 1.609,4.527c0,0.602 0.192,1.218 0.417,1.369c0.225,0.151 0.542,0.895 0.704,1.653c0.162,0.758 0.681,2.277 1.153,3.376c0.472,1.099 1.208,3.291 1.637,4.87c0.428,1.579 0.966,2.997 1.196,3.151c0.229,0.155 0.417,0.823 0.417,1.485c0,0.662 0.413,2.004 0.919,2.983c0.505,0.978 0.919,2.098 0.919,2.488c0,0.391 0.705,2.238 1.567,4.106c0.861,1.868 1.914,4.689 2.34,6.268c0.426,1.579 0.962,2.998 1.191,3.152c0.23,0.154 0.417,0.832 0.417,1.506c0,0.674 0.187,1.616 0.415,2.094c0.228,0.477 0.685,1.879 1.015,3.115c0.329,1.236 1.073,3.292 1.653,4.568c0.58,1.277 1.054,2.675 1.054,3.107c0,0.433 0.413,1.587 0.919,2.565c0.506,0.979 0.919,2.019 0.919,2.313c0,0.294 0.284,1.242 0.63,2.108c0.347,0.866 0.884,2.586 1.194,3.822c0.31,1.236 0.75,2.638 0.979,3.115c1.026,2.147 0.386,7.199 -1.474,11.621c-0.462,1.099 -0.973,2.619 -1.136,3.377c-0.162,0.758 -0.479,1.502 -0.703,1.653c-0.225,0.151 -0.409,0.722 -0.409,1.268c0,0.547 -0.414,1.925 -0.919,3.062c-0.506,1.137 -0.926,2.419 -0.934,2.848c-0.014,0.429 -0.318,1.217 -0.689,1.75c-0.372,0.533 -0.675,1.379 -0.675,1.88c0,0.501 -0.187,1.301 -0.415,1.778c-0.228,0.477 -0.663,1.879 -0.966,3.115c-0.303,1.237 -1.047,3.314 -1.654,4.617c-0.606,1.303 -1.102,2.808 -1.102,3.343c0,0.535 -0.207,1.112 -0.459,1.282c-0.253,0.17 -0.46,0.752 -0.46,1.295c0,0.542 -0.48,2.046 -1.066,3.342c-0.586,1.296 -1.331,3.368 -1.655,4.604c-0.325,1.237 -1.086,3.314 -1.692,4.617c-0.606,1.303 -1.102,2.808 -1.102,3.343c0,0.535 -0.207,1.112 -0.46,1.282c-0.253,0.17 -0.459,0.738 -0.459,1.263c0,0.526 -0.485,2.142 -1.078,3.593c-0.592,1.45 -1.349,3.424 -1.682,4.385c-0.333,0.962 -0.779,1.962 -0.991,2.223c-0.212,0.261 -0.386,0.979 -0.386,1.594c0,0.616 -0.207,1.259 -0.459,1.429c-0.253,0.169 -0.46,0.861 -0.46,1.538c0,0.676 -0.517,2.119 -1.149,3.207c-0.632,1.088 -1.149,2.532 -1.149,3.208c0,0.676 -0.207,1.368 -0.46,1.538c-0.252,0.17 -0.459,0.733 -0.459,1.252c0,0.518 -0.517,2 -1.149,3.292c-0.632,1.291 -1.149,2.751 -1.149,3.244c0,0.492 -0.207,1.034 -0.46,1.204c-0.253,0.169 -0.459,0.956 -0.459,1.748c0,0.792 -0.207,1.579 -0.46,1.748c-0.253,0.17 -0.466,0.802 -0.474,1.404c-0.014,0.602 -0.318,1.53 -0.69,2.064c-0.371,0.533 -0.674,1.323 -0.674,1.756c0,0.432 -0.604,2.131 -1.342,3.776c-1.239,2.761 -1.658,3.875 -3.281,8.734c-0.321,0.962 -0.86,2.457 -1.198,3.323c-0.337,0.865 -0.614,1.92 -0.614,2.343c0,0.423 -0.207,0.908 -0.459,1.078c-0.253,0.17 -0.46,0.703 -0.46,1.184c0,0.482 -0.414,1.807 -0.919,2.944c-0.506,1.137 -0.926,2.472 -0.934,2.966c-0.014,0.494 -0.318,1.335 -0.689,1.868c-0.371,0.533 -0.675,1.37 -0.675,1.858c0,0.489 -0.414,1.689 -0.919,2.667c-0.506,0.979 -0.922,2.166 -0.925,2.638c0,0.473 -0.52,1.838 -1.149,3.033c-0.629,1.196 -1.144,2.499 -1.144,2.897c0,0.397 -0.413,1.653 -0.919,2.79c-0.505,1.137 -0.926,2.419 -0.934,2.848c-0.014,0.429 -0.318,1.217 -0.689,1.75c-0.371,0.534 -0.675,1.37 -0.675,1.858c0,0.489 -0.414,1.689 -0.919,2.668c-0.506,0.978 -0.926,2.277 -0.934,2.887c-0.014,0.61 -0.318,1.545 -0.689,2.079c-0.371,0.533 -0.675,1.274 -0.675,1.647c0,0.373 -0.414,1.609 -0.919,2.746c-0.506,1.137 -0.92,2.462 -0.92,2.944c0,0.481 -0.19,1.004 -0.424,1.16c-0.233,0.157 -0.568,0.998 -0.744,1.869c-0.176,0.872 -0.709,2.337 -1.184,3.257c-0.476,0.92 -0.865,2.214 -0.865,2.877c0,0.662 -0.207,1.343 -0.459,1.512c-0.253,0.17 -0.466,0.802 -0.474,1.404c-0.015,0.602 -0.319,1.531 -0.69,2.064c-0.371,0.533 -0.675,1.475 -0.675,2.093c0,0.619 -0.207,1.263 -0.459,1.433c-0.253,0.17 -0.46,0.775 -0.46,1.345c0,1.286 -2.971,7.748 -4.262,9.27c-0.906,1.068 -2.283,0.7 -2.74,0.841c0,0 0,0 0,0Z" style="fill:#333;fill-rule:nonzero;"/></g></g><text x="838.939px" y="584.786px" style="font-family:'CoolveticaRg-Regular', 'Coolvetica', sans-serif;font-size:641.162px;fill:#333;">W<tspan x="1312.98px 1620.26px 1940.36px 2087.58px 2431.51px 2738.17px 3022.84px 3299.57px 3606.85px 4067.45px " y="584.786px 584.786px 584.786px 584.786px 584.786px 584.786px 584.786px 584.786px 584.786px 584.786px ">eb Systems</tspan></text></g></g></svg>