<?xml version="1.0" encoding="UTF-8" standalone="no"?><!DOCTYPE svg PUBLIC "-//W3C//DTD SVG 1.1//EN" "http://www.w3.org/Graphics/SVG/1.1/DTD/svg11.dtd"><svg width="100%" height="100%" viewBox="0 0 2000 2000" version="1.1" xmlns="http://www.w3.org/2000/svg" xmlns:xlink="http://www.w3.org/1999/xlink" xml:space="preserve" xmlns:serif="http://www.serif.com/" style="fill-rule:evenodd;clip-rule:evenodd;stroke-linejoin:round;stroke-miterlimit:2;"><g id="Capa1"><circle id="primario" cx="1000" cy="1000" r="1000" style="fill:#2f3137;"/><circle id="secundario" cx="1000" cy="1000" r="895.833" style="fill:#fff;"/><g id="w"><path id="path829" d="M657.553,1661.68c-0.9,-0.225 -2.847,-1.352 -5.399,-1.352c-2.552,0 -4.973,-0.592 -5.379,-1.317c-0.406,-0.724 -1.917,-1.336 -3.358,-1.359c-1.44,-0.021 -3.663,-0.912 -4.939,-1.976c-1.277,-1.064 -3.14,-1.934 -4.142,-1.934c-2.582,0 -20.992,-10.082 -22.804,-12.488c-0.829,-1.102 -2.03,-2.003 -2.667,-2.003c-1.402,0 -6.032,-3.823 -14.757,-12.185c-3.591,-3.442 -7.123,-6.258 -7.849,-6.258c-1.9,0 -20.171,-19.883 -20.171,-21.95c0,-0.954 -2.555,-4.972 -5.678,-8.929c-7.588,-9.615 -11.057,-14.718 -11.057,-16.263c0,-0.702 -0.868,-2.07 -1.929,-3.04c-2.171,-1.986 -10.676,-20.988 -11.889,-26.565c-0.435,-1.999 -1.27,-3.961 -1.854,-4.359c-0.585,-0.398 -1.063,-2.136 -1.063,-3.862c0,-1.726 -0.538,-3.504 -1.196,-3.952c-0.7,-0.477 -1.195,-8.111 -1.195,-18.443c0,-10.331 0.495,-17.965 1.195,-18.442c0.658,-0.448 1.196,-2.201 1.196,-3.896c0,-1.694 1.338,-5.661 2.974,-8.814c1.636,-3.153 2.98,-7.032 2.988,-8.619c0,-1.588 0.552,-3.253 1.21,-3.701c0.657,-0.448 1.195,-1.91 1.195,-3.249c0,-1.34 1.278,-5.306 2.841,-8.815c1.562,-3.508 3.497,-9.046 4.3,-12.307c0.803,-3.26 1.945,-6.957 2.539,-8.215c0.593,-1.258 1.078,-3.13 1.078,-4.16c0,-1.03 1.279,-4.743 2.841,-8.251c1.563,-3.508 3.51,-9.047 4.328,-12.307c0.817,-3.26 2.767,-8.676 4.331,-12.034c1.565,-3.359 2.845,-7.325 2.845,-8.815c0,-1.489 0.538,-3.074 1.195,-3.522c0.658,-0.447 1.196,-1.854 1.196,-3.124c0,-1.271 1.246,-5.237 2.769,-8.814c1.522,-3.578 3.475,-9.172 4.339,-12.432c0.864,-3.261 2.846,-8.952 4.404,-12.646c1.557,-3.695 2.832,-7.408 2.832,-8.252c0,-0.843 0.466,-2.562 1.035,-3.82c0.57,-1.258 1.646,-4.214 2.391,-6.569c0.745,-2.355 1.968,-6.208 2.717,-8.563c0.748,-2.355 2.093,-5.855 2.988,-7.778c0.895,-1.923 1.627,-4.424 1.627,-5.558c0,-1.135 0.989,-4.007 2.198,-6.384c1.209,-2.377 2.5,-5.803 2.869,-7.615c0.37,-1.811 1.751,-6.257 3.071,-9.88c1.319,-3.622 3.059,-8.661 3.865,-11.197c0.807,-2.536 1.933,-5.64 2.502,-6.898c0.569,-1.258 1.035,-3.189 1.035,-4.291c0,-1.102 1.29,-4.815 2.867,-8.251c1.576,-3.437 3.523,-8.916 4.327,-12.176c0.804,-3.26 2.741,-8.676 4.306,-12.034c1.564,-3.359 2.844,-7.325 2.844,-8.815c0,-1.489 0.538,-3.074 1.196,-3.522c0.657,-0.448 1.195,-2.033 1.195,-3.522c0,-1.489 1.28,-5.456 2.845,-8.814c1.564,-3.359 3.502,-8.774 4.306,-12.035c0.803,-3.26 2.751,-8.739 4.327,-12.175c1.577,-3.436 2.866,-7.403 2.866,-8.815c0,-1.411 0.538,-2.933 1.196,-3.38c0.657,-0.448 1.195,-2.027 1.195,-3.509c0,-1.483 1.234,-5.449 2.741,-8.815c1.508,-3.365 3.453,-8.787 4.323,-12.047c0.869,-3.26 2.548,-8.299 3.731,-11.197c1.182,-2.899 2.422,-6.455 2.756,-7.904c1.151,-5.007 5.872,-18.447 6.917,-19.695c0.577,-0.688 1.066,-2.466 1.087,-3.952c0.037,-1.485 0.827,-3.851 1.793,-5.257c0.965,-1.407 1.755,-3.612 1.755,-4.9c0,-1.289 1.076,-4.454 2.39,-7.034c1.315,-2.58 2.391,-5.798 2.391,-7.151c0,-1.353 1.339,-5.04 2.974,-8.193c1.636,-3.153 2.981,-7.032 2.989,-8.619c0,-1.588 0.552,-3.253 1.209,-3.701c0.658,-0.448 1.196,-1.91 1.196,-3.249c0,-1.34 1.278,-5.306 2.84,-8.815c1.563,-3.508 3.5,-9.046 4.306,-12.307c0.806,-3.26 2.755,-8.739 4.332,-12.175c1.577,-3.437 2.866,-7.15 2.866,-8.252c0,-1.102 0.466,-3.033 1.036,-4.291c0.569,-1.258 1.694,-4.362 2.501,-6.898c0.807,-2.536 2.546,-7.574 3.866,-11.197c1.319,-3.623 2.701,-8.069 3.07,-9.88c0.37,-1.811 1.66,-5.238 2.869,-7.615c1.209,-2.377 2.198,-5.26 2.198,-6.408c0,-1.148 1.28,-4.835 2.845,-8.194c1.564,-3.358 3.502,-8.774 4.306,-12.034c0.803,-3.26 2.75,-8.739 4.327,-12.176c1.577,-3.436 2.866,-7.402 2.866,-8.814c0,-1.412 0.538,-2.933 1.195,-3.381c0.658,-0.447 1.196,-1.984 1.196,-3.414c0,-1.431 1.248,-5.397 2.773,-8.815c1.525,-3.417 3.478,-8.881 4.339,-12.141c0.862,-3.261 2.842,-8.951 4.4,-12.646c1.558,-3.695 2.832,-7.662 2.832,-8.815c0,-1.153 0.538,-2.462 1.196,-2.91c0.657,-0.448 1.195,-1.971 1.195,-3.386c0,-1.414 1.119,-5.38 2.488,-8.814c5.303,-13.307 5.879,-14.954 5.879,-16.786c0,-1.04 1.076,-4.002 2.391,-6.582c1.315,-2.58 2.408,-6.007 2.429,-7.615c0.037,-1.608 0.828,-4.075 1.793,-5.481c0.965,-1.406 1.755,-3.362 1.755,-4.345c0,-0.983 1.076,-4.242 2.391,-7.241c1.315,-2.999 2.39,-6.492 2.39,-7.763c0,-1.27 0.497,-2.647 1.104,-3.061c0.607,-0.413 1.478,-2.631 1.936,-4.928c0.458,-2.298 1.844,-6.162 3.08,-8.588c1.237,-2.426 2.248,-5.557 2.248,-6.958c0,-1.402 1.345,-5.203 2.988,-8.447c1.644,-3.245 2.989,-7.084 2.989,-8.532c0,-1.448 0.538,-2.999 1.195,-3.447c0.658,-0.448 1.196,-1.854 1.196,-3.124c0,-1.271 1.246,-5.237 2.769,-8.815c1.522,-3.577 3.462,-9.171 4.31,-12.431c0.848,-3.261 2.561,-8.208 3.806,-10.993c1.245,-2.785 2.264,-5.902 2.264,-6.926c0,-1.023 1.289,-4.672 2.866,-8.109c1.577,-3.436 3.524,-8.915 4.327,-12.175c0.804,-3.261 2.742,-8.676 4.306,-12.035c1.565,-3.358 2.845,-6.963 2.845,-8.01c0,-1.047 1.342,-4.82 2.983,-8.384c1.641,-3.564 2.986,-7.483 2.989,-8.708c0,-1.225 0.543,-2.594 1.2,-3.042c0.658,-0.448 1.195,-1.993 1.195,-3.435c0,-1.441 1.076,-5.074 2.391,-8.074c1.315,-2.999 2.391,-6.111 2.391,-6.915c0,-0.804 1.883,-5.513 4.184,-10.465c2.301,-4.952 4.183,-9.7 4.183,-10.551c0,-1.996 12.065,-28.669 14.325,-31.67c0.946,-1.256 2.279,-3.321 2.962,-4.589c3.302,-6.13 7.756,-12.809 10.052,-15.072c1.4,-1.38 2.546,-3.387 2.546,-4.459c0,-2.583 21.12,-26.304 25.7,-28.865c1.972,-1.103 5.2,-3.661 7.172,-5.684c4.326,-4.437 31.457,-19.739 34.997,-19.739c1.384,0 2.849,-0.593 3.255,-1.317c0.406,-0.725 2.02,-1.317 3.586,-1.317c1.566,0 3.18,-0.593 3.586,-1.318c0.406,-0.724 2.455,-1.338 4.553,-1.364c2.098,-0.025 5.159,-0.894 6.803,-1.929c1.643,-1.036 5.974,-1.904 9.622,-1.929c3.649,-0.025 7.197,-0.667 7.885,-1.425c0.816,-0.899 8.471,-1.174 22.054,-0.792c22.749,0.64 34.921,2.054 38.955,4.523c1.436,0.88 4.229,1.599 6.205,1.599c1.977,0 3.927,0.593 4.333,1.317c0.407,0.725 2.827,1.318 5.379,1.318c2.553,0 4.974,0.592 5.38,1.317c0.406,0.724 1.703,1.317 2.881,1.317c2.462,0 31.734,16.071 34.749,19.078c1.103,1.1 2.541,2 3.197,2c0.655,0 2.455,1.482 3.999,3.293c1.544,1.811 3.42,3.293 4.168,3.293c1.47,0 22.343,23.574 26.386,29.8c1.354,2.086 3.451,6.164 4.659,9.062c1.208,2.898 2.617,5.575 3.132,5.949c1.391,1.011 8.274,15.785 8.274,17.761c0,0.938 3.227,8.695 7.172,17.236c3.945,8.541 7.172,16.292 7.172,17.226c0,1.609 1.321,5.153 7.911,21.226c1.566,3.82 2.848,8.083 2.848,9.473c0,1.391 0.537,2.895 1.195,3.342c0.657,0.448 1.195,1.969 1.195,3.381c0,1.412 1.271,5.378 2.824,8.814c2.726,6.031 3.652,8.606 7.691,21.397c1.029,3.261 2.85,7.873 4.046,10.25c1.196,2.377 2.174,5.138 2.174,6.136c0,0.998 1.26,4.685 2.799,8.193c1.539,3.508 3.421,8.305 4.183,10.66c0.762,2.355 2.008,6.208 2.768,8.563c0.76,2.355 2.642,7.029 4.184,10.388c1.541,3.358 2.801,7.045 2.801,8.193c0,1.148 1.076,4.198 2.391,6.778c1.315,2.58 2.391,5.596 2.391,6.702c0,1.107 1.345,4.666 2.988,7.911c1.644,3.244 2.989,6.943 2.989,8.219c0,1.275 1.87,6.145 4.157,10.821c2.286,4.676 4.168,9.521 4.183,10.767c0,1.246 1.103,4.376 2.418,6.956c1.315,2.58 2.391,5.322 2.391,6.094c0,0.772 1.882,5.776 4.183,11.12c2.302,5.344 4.184,10.263 4.184,10.932c0,0.669 2.69,7.211 5.977,14.539c3.287,7.327 5.977,14.09 5.977,15.029c0,2.762 5.826,14.839 8.394,17.4c1.3,1.297 2.364,3.052 2.364,3.9c0,2.419 5.28,7.271 7.912,7.271c2.323,0 10.019,-7.557 10.019,-9.839c0,-0.633 0.815,-2.143 1.811,-3.356c2.379,-2.897 11.338,-22.355 11.338,-24.625c0,-0.971 1.882,-5.886 4.183,-10.921c2.301,-5.036 4.187,-9.912 4.19,-10.835c0,-0.924 1.886,-5.717 4.184,-10.652c2.298,-4.934 4.178,-9.794 4.178,-10.798c0,-1.005 1.344,-4.614 2.988,-8.02c1.644,-3.407 2.988,-6.884 2.988,-7.727c0,-0.842 1.076,-3.986 2.391,-6.985c1.315,-2.999 2.391,-6.251 2.391,-7.225c0,-0.974 1.871,-5.597 4.157,-10.273c2.286,-4.676 4.169,-9.518 4.184,-10.76c0,-1.242 1.371,-4.913 3.015,-8.158c1.643,-3.244 2.988,-6.804 2.988,-7.91c0,-1.107 1.076,-4.123 2.391,-6.703c1.315,-2.58 2.391,-5.581 2.391,-6.67c0,-1.089 1.344,-4.905 2.988,-8.479c1.644,-3.575 2.989,-7.387 2.989,-8.472c0,-1.085 1.344,-4.628 2.988,-7.872c1.644,-3.245 2.988,-6.805 2.988,-7.911c0,-1.106 1.076,-4.123 2.391,-6.703c1.315,-2.58 2.391,-5.581 2.391,-6.67c0,-1.089 1.345,-4.904 2.988,-8.479c1.644,-3.574 2.999,-7.26 3.011,-8.189c0,-0.93 1.895,-5.764 4.184,-10.742c2.289,-4.977 4.161,-9.85 4.161,-10.828c0,-0.977 1.076,-3.888 2.391,-6.468c1.315,-2.58 2.397,-5.71 2.405,-6.956c0,-1.246 1.353,-4.845 2.989,-7.998c1.635,-3.153 2.973,-6.641 2.973,-7.751c0,-1.109 1.883,-6.088 4.184,-11.064c2.301,-4.976 4.187,-9.788 4.191,-10.692c0,-2.233 19.812,-45.615 22.087,-48.386c0.997,-1.215 1.813,-2.809 1.813,-3.543c0,-2.465 23.245,-24.866 32.873,-31.678c6.151,-4.353 25.143,-14.863 26.857,-14.863c0.722,0 3.967,-1.482 7.211,-3.293c3.243,-1.811 7.133,-3.293 8.643,-3.293c1.511,0 5.698,-1.282 9.304,-2.847c3.607,-1.566 9.785,-3.098 13.73,-3.405c3.944,-0.306 7.683,-1.1 8.307,-1.763c0.625,-0.664 6.107,-1.207 12.183,-1.207c6.075,0 11.378,-0.593 11.784,-1.317c0.936,-1.668 21.247,-1.742 22.772,-0.083c0.625,0.679 6.784,1.51 13.687,1.848c14.607,0.713 24.626,2.326 28.311,4.558c1.436,0.869 4.229,1.581 6.206,1.581c1.976,0 3.926,0.593 4.332,1.317c0.407,0.725 2.021,1.318 3.586,1.318c1.567,0 3.18,0.592 3.587,1.317c0.406,0.724 1.997,1.317 3.534,1.317c1.538,0 5.137,1.475 7.999,3.278c2.861,1.802 6.06,3.284 7.11,3.293c2.321,0.021 9.13,3.653 10.106,5.394c0.389,0.692 3.303,2.709 6.478,4.482c8.599,4.802 15.542,10.307 21.503,17.047c2.93,3.314 6.023,6.026 6.873,6.026c0.849,0 1.544,0.755 1.544,1.678c0,0.923 4.303,6.392 9.563,12.154c5.259,5.763 9.563,10.998 9.563,11.635c0,0.637 1.344,2.92 2.988,5.072c1.644,2.153 2.988,4.685 2.988,5.628c0,0.942 0.796,2.441 1.769,3.331c2.242,2.05 4.978,8.059 5.996,13.167c0.433,2.173 1.284,4.289 1.891,4.702c0.606,0.413 1.103,2.164 1.103,3.89c0,1.725 0.538,3.504 1.195,3.952c0.658,0.447 1.195,3.115 1.195,5.928c0,2.812 0.538,5.48 1.196,5.928c1.521,1.035 1.608,39.183 0.093,40.903c-0.606,0.688 -1.373,5.401 -1.704,10.473c-0.762,11.673 -1.962,19.351 -3.316,21.218c-1.123,1.548 -3.232,11.088 -4.265,19.298c-0.344,2.722 -1.104,5.276 -1.692,5.677c-0.588,0.4 -1.07,3.029 -1.07,5.841c0,2.813 -0.537,5.481 -1.195,5.929c-0.657,0.447 -1.195,2.021 -1.195,3.497c0,1.475 -0.752,4.256 -1.671,6.179c-0.919,1.923 -2.316,6.164 -3.105,9.425c-0.789,3.26 -1.92,6.957 -2.513,8.215c-0.594,1.258 -1.096,3.333 -1.117,4.611c-0.037,1.278 -0.828,3.474 -1.793,4.88c-0.965,1.407 -1.755,3.891 -1.755,5.521c0,1.63 -0.538,3.331 -1.195,3.778c-0.658,0.448 -1.196,1.947 -1.196,3.332c0,1.385 -1.279,5.648 -2.843,9.473c-1.564,3.826 -3.513,9.327 -4.331,12.225c-0.817,2.898 -1.959,6.298 -2.535,7.557c-0.577,1.258 -1.049,3.204 -1.049,4.325c0,1.12 -1.248,4.833 -2.773,8.251c-1.525,3.417 -3.46,8.881 -4.3,12.141c-0.84,3.261 -2.013,6.958 -2.606,8.216c-0.594,1.258 -1.079,3.253 -1.079,4.432c0,1.18 -1.28,4.893 -2.845,8.252c-1.565,3.358 -3.5,8.773 -4.3,12.034c-0.801,3.26 -1.941,6.957 -2.535,8.215c-0.593,1.258 -1.078,3.242 -1.078,4.408c0,1.166 -0.752,3.693 -1.671,5.616c-0.919,1.923 -2.319,6.165 -3.111,9.425c-0.791,3.26 -2.729,8.739 -4.306,12.176c-1.576,3.436 -2.866,7.149 -2.866,8.251c0,1.102 -0.486,3.033 -1.079,4.291c-0.593,1.258 -1.734,4.955 -2.534,8.215c-0.801,3.261 -2.736,8.676 -4.301,12.035c-1.564,3.358 -2.844,7.071 -2.844,8.251c0,1.18 -0.486,3.174 -1.079,4.432c-0.594,1.258 -1.766,4.955 -2.606,8.216c-0.841,3.26 -2.776,8.724 -4.301,12.141c-1.525,3.418 -2.773,7.384 -2.773,8.815c0,1.43 -0.475,2.925 -1.057,3.321c-0.582,0.396 -1.328,2.357 -1.658,4.359c-0.329,2.001 -1.688,6.603 -3.016,10.225c-1.328,3.623 -3.074,8.662 -3.881,11.198c-0.806,2.535 -1.932,5.64 -2.501,6.898c-0.57,1.258 -1.036,3.368 -1.036,4.688c0,1.32 -0.789,3.551 -1.755,4.958c-0.965,1.406 -1.772,3.483 -1.793,4.615c-0.037,1.132 -1.114,4.512 -2.428,7.511c-1.315,2.999 -2.408,6.519 -2.429,7.822c-0.038,1.303 -0.828,3.52 -1.793,4.926c-0.966,1.407 -1.755,3.574 -1.755,4.816c0,1.242 -1.007,4.537 -2.236,7.323c-2.474,5.603 -7.255,20.352 -8.262,25.483c-0.355,1.811 -1.635,5.238 -2.844,7.615c-1.209,2.376 -2.198,5.249 -2.198,6.383c0,1.134 -0.752,3.636 -1.67,5.559c-0.919,1.923 -2.319,6.164 -3.111,9.424c-0.792,3.261 -2.73,8.74 -4.306,12.176c-1.577,3.436 -2.867,7.149 -2.867,8.251c0,1.102 -0.485,3.033 -1.078,4.291c-0.594,1.258 -1.734,4.955 -2.535,8.216c-0.8,3.26 -2.735,8.676 -4.3,12.034c-1.565,3.358 -2.845,7.325 -2.845,8.814c0,1.49 -0.538,3.075 -1.195,3.522c-0.658,0.448 -1.196,1.854 -1.196,3.125c0,1.271 -1.246,5.237 -2.768,8.814c-1.523,3.577 -3.458,9.172 -4.301,12.432c-0.842,3.261 -2.017,6.958 -2.61,8.216c-0.594,1.258 -1.079,3.13 -1.079,4.159c0,1.03 -1.278,4.743 -2.84,8.252c-1.563,3.508 -3.498,9.046 -4.301,12.307c-0.802,3.26 -1.945,6.957 -2.538,8.215c-0.594,1.258 -1.079,3.096 -1.079,4.085c0,0.989 -1.345,4.585 -2.989,7.992c-1.643,3.406 -2.988,7.313 -2.988,8.681c0,1.368 -0.538,2.854 -1.195,3.301c-0.658,0.448 -1.213,2.41 -1.234,4.359c-0.037,1.95 -0.828,4.696 -1.793,6.102c-0.965,1.407 -1.755,3.362 -1.755,4.345c0,0.984 -1.076,4.242 -2.39,7.241c-1.315,3 -2.391,6.493 -2.391,7.763c0,1.27 -0.476,2.634 -1.058,3.03c-0.581,0.396 -1.331,2.358 -1.665,4.359c-0.789,4.731 -5.635,19.085 -6.987,20.698c-0.577,0.689 -1.066,2.467 -1.087,3.952c0,1.486 -0.827,3.852 -1.793,5.258c-0.965,1.406 -1.755,3.518 -1.755,4.693c0,1.174 -1.075,4.589 -2.39,7.588c-1.315,2.999 -2.391,6.549 -2.391,7.888c0,1.339 -0.463,2.998 -1.028,3.686c-0.566,0.689 -1.985,4.512 -3.154,8.497c-1.169,3.985 -3.081,9.617 -4.249,12.515c-1.167,2.898 -2.396,6.455 -2.729,7.904c-1.151,5.006 -5.872,18.447 -6.917,19.694c-0.577,0.688 -1.049,2.58 -1.049,4.204c0,1.623 -0.496,3.29 -1.103,3.703c-0.607,0.414 -1.452,2.498 -1.877,4.632c-0.425,2.135 -1.812,6.249 -3.08,9.143c-1.269,2.894 -2.307,6.159 -2.307,7.255c0,1.096 -1.345,4.648 -2.989,7.892c-1.643,3.244 -2.988,7.084 -2.988,8.532c0,1.448 -0.538,2.999 -1.196,3.447c-0.657,0.447 -1.195,1.853 -1.195,3.123c0,1.27 -1.054,4.713 -2.342,7.651c-2.19,4.996 -3.551,8.771 -7.276,20.183c-0.828,2.536 -3.306,8.673 -5.507,13.638c-2.2,4.965 -4.001,9.813 -4.001,10.772c0,0.96 -1.882,5.726 -4.183,10.591c-2.302,4.865 -4.184,9.717 -4.184,10.782c0,2.84 -18.627,43.276 -23.724,51.502c-2.402,3.876 -5.008,8.322 -5.792,9.88c-1.745,3.47 -33.212,37.38 -38.078,41.035c-5.658,4.25 -16.241,9.88 -18.57,9.88c-1.184,0 -2.484,0.593 -2.891,1.318c-0.406,0.724 -2.289,1.317 -4.184,1.317c-1.894,0 -3.777,0.593 -4.183,1.317c-0.407,0.725 -2.994,1.339 -5.749,1.364c-2.755,0.025 -6.354,0.894 -7.998,1.93c-1.855,1.168 -6.476,1.9 -12.182,1.929c-5.056,0.025 -9.526,0.64 -9.932,1.364c-0.474,0.845 -19.115,1.317 -51.999,1.317c-32.883,0 -51.524,-0.472 -51.998,-1.317c-0.406,-0.724 -3.8,-1.338 -7.541,-1.364c-3.742,-0.025 -8.148,-0.894 -9.792,-1.929c-1.643,-1.036 -4.704,-1.904 -6.802,-1.93c-2.098,-0.024 -4.147,-0.639 -4.554,-1.364c-0.406,-0.724 -2.02,-1.317 -3.586,-1.317c-1.566,0 -3.179,-0.593 -3.586,-1.317c-0.406,-0.725 -1.984,-1.318 -3.506,-1.318c-3.546,0 -13.14,-5.799 -18.91,-11.43c-2.468,-2.408 -5.17,-4.378 -6.005,-4.378c-1.912,0 -19.991,-19.927 -19.991,-22.034c0,-0.857 -1.285,-2.974 -2.855,-4.704c-3.225,-3.554 -8.468,-11.947 -12.22,-19.563c-1.388,-2.817 -3.322,-6.149 -4.297,-7.404c-2.145,-2.76 -22.466,-47.911 -22.466,-49.916c0,-0.78 -2.421,-6.646 -5.379,-13.035c-2.959,-6.39 -5.391,-12.544 -5.406,-13.677c0,-1.132 -1.898,-5.885 -4.184,-10.561c-2.286,-4.675 -4.157,-9.548 -4.157,-10.828c0,-1.279 -1.076,-4.437 -2.391,-7.017c-1.314,-2.58 -2.39,-5.596 -2.39,-6.702c0,-1.107 -1.345,-4.667 -2.989,-7.911c-1.643,-3.244 -2.988,-6.751 -2.988,-7.793c0,-1.794 -1.246,-5.17 -7.911,-21.424c-1.566,-3.82 -2.847,-7.79 -2.847,-8.823c0,-1.032 -1.345,-4.664 -2.989,-8.071c-1.643,-3.406 -2.988,-6.883 -2.988,-7.726c0,-0.843 -1.076,-3.986 -2.391,-6.986c-1.315,-2.999 -2.391,-6.073 -2.391,-6.832c0,-0.759 -1.882,-5.451 -4.183,-10.427c-2.301,-4.976 -4.184,-9.955 -4.184,-11.064c0,-1.11 -1.338,-4.597 -2.974,-7.751c-1.636,-3.153 -2.981,-6.642 -2.988,-7.753c-0.038,-3.213 -14.698,-34.817 -17.969,-38.7c-4.607,-5.467 -6.475,-6.23 -10.583,-4.327c-3.655,1.694 -8.519,7.943 -10.963,14.087c-0.719,1.81 -2.138,4.302 -3.152,5.536c-2.267,2.762 -7.553,14.107 -7.553,16.213c0,0.846 -2.386,6.822 -5.302,13.279c-4.907,10.865 -6.188,14.216 -10.275,26.89c-0.818,2.536 -2.758,7.422 -4.311,10.858c-1.553,3.436 -2.824,7.123 -2.824,8.193c0,1.07 -1.076,4.057 -2.391,6.637c-1.315,2.58 -2.391,5.581 -2.391,6.67c0,1.089 -1.344,4.905 -2.988,8.479c-1.644,3.575 -2.988,7.387 -2.988,8.472c0,1.085 -1.345,4.628 -2.989,7.872c-1.643,3.245 -2.988,6.804 -2.988,7.911c0,1.106 -1.076,4.123 -2.391,6.703c-1.315,2.579 -2.397,5.71 -2.405,6.956c0,1.246 -1.352,4.845 -2.988,7.998c-1.636,3.153 -2.974,6.59 -2.974,7.638c0,1.048 -1.076,4.359 -2.391,7.359c-1.315,2.999 -2.408,6.379 -2.429,7.511c0,1.132 -0.827,3.208 -1.793,4.615c-0.965,1.406 -1.755,3.515 -1.755,4.686c0,1.171 -1.881,6.245 -4.18,11.275c-2.299,5.03 -4.182,9.874 -4.184,10.765c0,2.369 -18.936,44.024 -21.415,47.122c-1.16,1.449 -3.217,5.302 -4.572,8.563c-1.355,3.26 -3.863,7.365 -5.573,9.122c-1.71,1.756 -3.109,3.777 -3.109,4.49c0,3.669 -28.43,35.129 -31.745,35.129c-0.536,0 -2.095,1.161 -3.466,2.581c-3.322,3.44 -26.198,15.862 -29.21,15.862c-1.308,0 -2.711,0.593 -3.117,1.317c-0.406,0.725 -2.455,1.339 -4.553,1.364c-2.098,0.025 -5.159,0.894 -6.803,1.93c-1.725,1.087 -6.297,1.902 -10.818,1.929c-4.306,0.025 -8.341,0.604 -8.965,1.285c-1.537,1.676 -22.11,2.701 -69.48,3.462c-26.43,0.425 -33.679,-0.595 -40.415,-0.714c0,0 0.001,0 0.001,0Zm-146.732,-203.652c-2.339,-5.584 -12.659,-28.127 -14.033,-33.503c-0.832,-3.26 -2.794,-8.676 -4.358,-12.034c-1.565,-3.359 -2.845,-7.072 -2.845,-8.251c0,-1.18 -0.486,-3.175 -1.079,-4.433c-0.593,-1.258 -1.734,-4.955 -2.534,-8.215c-0.801,-3.261 -2.736,-8.676 -4.301,-12.035c-1.564,-3.358 -2.844,-7.325 -2.844,-8.814c0,-1.489 -0.538,-3.074 -1.196,-3.522c-0.657,-0.448 -1.202,-2.113 -1.21,-3.701c-0.007,-1.587 -1.352,-5.466 -2.988,-8.619c-1.636,-3.153 -2.974,-6.59 -2.974,-7.638c0,-1.048 -1.076,-4.359 -2.391,-7.359c-1.315,-2.999 -2.408,-6.379 -2.429,-7.511c-0.022,-1.131 -0.827,-3.208 -1.793,-4.615c-0.965,-1.406 -1.755,-3.518 -1.755,-4.692c0,-1.175 -1.075,-4.59 -2.39,-7.589c-1.315,-2.999 -2.391,-6.632 -2.391,-8.074c0,-1.441 -0.538,-2.986 -1.195,-3.434c-0.658,-0.448 -1.199,-1.817 -1.203,-3.042c-0.004,-1.225 -0.811,-3.926 -1.793,-6.001c-0.982,-2.075 -1.786,-4.603 -1.786,-5.616c0,-1.014 -0.485,-2.873 -1.079,-4.131c-0.593,-1.258 -1.766,-4.955 -2.606,-8.216c-0.84,-3.26 -2.775,-8.724 -4.3,-12.141c-1.525,-3.418 -2.773,-7.384 -2.773,-8.815c0,-1.43 -0.476,-2.924 -1.058,-3.321c-0.581,-0.396 -1.327,-2.357 -1.658,-4.359c-0.33,-2.001 -1.687,-6.602 -3.015,-10.225c-1.328,-3.623 -3.075,-8.662 -3.881,-11.197c-0.807,-2.536 -1.933,-5.64 -2.502,-6.899c-0.569,-1.258 -1.035,-3.241 -1.035,-4.407c0,-1.166 -0.732,-3.693 -1.627,-5.617c-0.895,-1.923 -2.189,-5.275 -2.876,-7.448c-3.3,-10.448 -4.45,-13.64 -7.043,-19.552c-1.539,-3.509 -2.798,-7.196 -2.798,-8.194c0,-0.998 -1.012,-3.799 -2.248,-6.225c-1.237,-2.425 -2.623,-6.29 -3.081,-8.587c-0.458,-2.298 -1.329,-4.516 -1.936,-4.929c-0.606,-0.413 -1.103,-3.053 -1.103,-5.865c0,-2.813 -0.538,-5.481 -1.195,-5.928c-0.658,-0.448 -1.196,-2.866 -1.196,-5.374c0,-2.593 -1.288,-6.808 -2.988,-9.776c-1.644,-2.869 -2.989,-6.396 -2.989,-7.838c0,-1.441 -1.075,-4.731 -2.39,-7.311c-1.315,-2.58 -2.391,-5.745 -2.391,-7.034c0,-1.288 -0.79,-3.493 -1.755,-4.9c-0.965,-1.406 -1.772,-3.483 -1.793,-4.616c-0.022,-1.132 -1.389,-5.144 -3.04,-8.916c-3.739,-8.541 -6.598,-16.892 -7.41,-21.645c-0.342,-2.001 -1.098,-3.963 -1.68,-4.359c-0.581,-0.396 -1.057,-3.022 -1.057,-5.834c0,-2.813 -0.538,-5.481 -1.195,-5.928c-0.658,-0.448 -1.213,-2.113 -1.234,-3.701c-0.022,-1.587 -0.828,-4.037 -1.793,-5.443c-0.965,-1.407 -1.755,-3.573 -1.755,-4.816c0,-1.242 -1.019,-4.537 -2.264,-7.323c-1.245,-2.785 -2.958,-7.732 -3.806,-10.992c-0.847,-3.26 -2.787,-8.855 -4.31,-12.432c-1.523,-3.577 -2.769,-7.544 -2.769,-8.814c0,-1.271 -0.538,-2.677 -1.195,-3.125c-0.658,-0.448 -1.196,-2.148 -1.196,-3.778c0,-1.63 -0.789,-4.114 -1.755,-5.521c-0.965,-1.406 -1.772,-3.623 -1.793,-4.926c-0.022,-1.303 -1.114,-4.823 -2.428,-7.822c-1.315,-2.999 -2.408,-6.379 -2.429,-7.511c-0.023,-1.132 -0.828,-3.209 -1.793,-4.615c-0.965,-1.406 -1.755,-3.637 -1.755,-4.958c0,-1.32 -0.486,-3.43 -1.079,-4.688c-0.593,-1.258 -1.722,-4.955 -2.507,-8.216c-0.786,-3.26 -1.914,-6.957 -2.508,-8.215c-0.593,-1.258 -1.078,-2.978 -1.078,-3.821c0,-0.843 -1.278,-4.556 -2.839,-8.251c-1.561,-3.695 -3.679,-9.682 -4.705,-13.305c-1.709,-6.026 -3.372,-11.486 -5.619,-18.442c-2.039,-6.315 -3.573,-12.161 -3.573,-13.623c0,-0.868 -1.344,-3.927 -2.988,-6.796c-1.644,-2.869 -2.988,-6.423 -2.988,-7.896c0,-1.473 -0.494,-3.708 -1.096,-4.966c-0.603,-1.258 -1.998,-5.695 -3.099,-9.86c-1.102,-4.164 -2.491,-7.904 -3.088,-8.311c-0.597,-0.406 -1.085,-2.447 -1.085,-4.535c0,-2.088 -0.538,-4.163 -1.195,-4.611c-0.658,-0.448 -1.196,-2.226 -1.196,-3.952c0,-1.726 -0.475,-3.462 -1.057,-3.858c-0.582,-0.396 -1.328,-2.358 -1.658,-4.359c-0.331,-2.001 -1.737,-6.891 -3.127,-10.866c-1.389,-3.974 -2.525,-8.83 -2.525,-10.79c0,-1.96 -0.538,-3.93 -1.195,-4.378c-0.658,-0.447 -1.196,-2.269 -1.196,-4.047c0,-1.779 -0.472,-4.263 -1.049,-5.521c-2.548,-5.553 -4.928,-12.415 -4.928,-14.206c0,-1.072 -0.474,-2.979 -1.054,-4.237c-2.129,-4.621 -6.406,-19.555 -6.978,-24.361c-0.323,-2.722 -1.069,-5.276 -1.657,-5.676c-0.588,-0.401 -1.069,-3.623 -1.069,-7.16c0,-3.537 -0.538,-6.797 -1.195,-7.245c-0.658,-0.448 -1.196,-4.005 -1.196,-7.904c0,-3.9 0.538,-7.456 1.196,-7.904c0.657,-0.448 1.195,-5.19 1.195,-10.539c0,-5.348 0.538,-10.091 1.195,-10.539c0.658,-0.447 1.213,-2.113 1.234,-3.7c0.022,-1.588 0.828,-4.037 1.793,-5.443c0.965,-1.407 1.755,-3.612 1.755,-4.9c0,-1.289 1.076,-4.454 2.391,-7.034c1.315,-2.58 2.39,-6.051 2.39,-7.714c0,-1.664 1.345,-4.416 2.989,-6.118c1.643,-1.702 2.988,-3.788 2.988,-4.636c0,-0.848 1.076,-2.615 2.391,-3.927c1.315,-1.311 2.391,-2.961 2.391,-3.667c0,-0.706 1.882,-3.579 4.183,-6.386c2.301,-2.807 4.184,-5.826 4.184,-6.708c0,-2.064 13.224,-16.831 15.072,-16.831c0.769,0 3.476,-2.061 6.014,-4.58c2.538,-2.519 5.203,-4.594 5.923,-4.611c0.72,-0.016 2.317,-1.258 3.55,-2.758c2.165,-2.637 13.66,-9.128 16.165,-9.128c0.675,0 3.637,-1.482 6.581,-3.294c2.944,-1.811 6.417,-3.293 7.717,-3.293c1.301,0 3.299,-0.535 4.44,-1.189c1.142,-0.654 4.497,-1.876 7.455,-2.716c2.959,-0.839 6.993,-2.179 8.965,-2.977c1.973,-0.798 6.814,-1.701 10.759,-2.006c3.944,-0.305 7.683,-1.098 8.308,-1.762c1.586,-1.684 67.248,-1.578 68.195,0.111c0.406,0.725 3.873,1.317 7.704,1.317c3.853,0 8.494,0.88 10.389,1.968c1.883,1.083 4.871,1.972 6.64,1.976c1.769,0.004 3.549,0.601 3.956,1.326c0.406,0.724 2.02,1.317 3.586,1.317c1.566,0 3.18,0.593 3.586,1.317c0.406,0.725 1.917,1.309 3.358,1.297c1.44,-0.012 5.308,1.411 8.596,3.159c3.287,1.749 7.321,3.841 8.965,4.649c4.274,2.1 13.739,8.321 16.326,10.73c1.211,1.128 3.689,2.749 5.507,3.603c1.818,0.854 3.935,3.192 4.706,5.195c0.77,2.003 2.977,5.521 4.903,7.816c1.927,2.296 4.113,5.346 4.857,6.779c1.816,3.493 10.089,17.215 12.855,21.322c1.22,1.811 3.298,5.777 4.62,8.812c1.321,3.035 2.9,5.859 3.51,6.274c1.46,0.994 22.805,48.073 22.805,50.298c0,0.946 1.076,3.831 2.391,6.411c1.315,2.58 2.39,6.712 2.39,9.184c0,2.471 0.538,4.859 1.196,5.307c0.657,0.447 1.197,1.816 1.199,3.041c0.002,1.226 1.885,6.344 4.184,11.374c2.299,5.03 4.18,9.849 4.18,10.709c0,0.86 1.873,5.637 4.161,10.614c2.289,4.978 4.172,10.35 4.184,11.937c0,1.588 0.501,3.212 1.085,3.611c0.585,0.398 1.409,2.359 1.831,4.359c0.422,1.999 1.771,6.006 2.999,8.904c1.227,2.898 3.143,8.677 4.257,12.842c1.113,4.164 2.513,7.904 3.11,8.311c0.597,0.406 1.085,2.168 1.085,3.914c0,1.747 1.075,5.287 2.39,7.867c1.315,2.579 2.391,5.533 2.391,6.562c0,1.029 1.833,5.902 4.074,10.828c2.241,4.926 4.98,12.364 6.088,16.529c1.107,4.164 2.501,7.904 3.098,8.311c0.596,0.406 1.084,2.194 1.084,3.972c0,1.778 0.486,4.263 1.08,5.521c0.593,1.258 1.78,4.955 2.638,8.215c0.857,3.261 2.792,8.682 4.3,12.048c1.508,3.365 2.741,7.052 2.741,8.193c0,1.141 1.075,4.185 2.39,6.765c1.315,2.58 2.391,5.324 2.391,6.098c0,0.774 0.737,3.276 1.638,5.559c0.901,2.283 2.299,6.818 3.105,10.079c0.807,3.26 1.953,6.957 2.546,8.215c2.671,5.663 1.005,18.984 -3.833,30.646c-1.202,2.898 -2.531,6.905 -2.953,8.905c-0.422,1.999 -1.246,3.961 -1.831,4.359c-0.584,0.398 -1.063,1.903 -1.063,3.344c0,1.442 -1.075,5.075 -2.39,8.074c-1.315,2.999 -2.408,6.379 -2.429,7.511c-0.037,1.132 -0.828,3.209 -1.793,4.615c-0.965,1.407 -1.755,3.638 -1.755,4.958c0,1.32 -0.485,3.43 -1.079,4.688c-0.593,1.258 -1.724,4.955 -2.513,8.216c-0.788,3.26 -2.723,8.739 -4.3,12.175c-1.577,3.437 -2.866,7.403 -2.866,8.815c0,1.411 -0.538,2.933 -1.196,3.38c-0.657,0.448 -1.195,1.985 -1.195,3.415c0,1.431 -1.248,5.397 -2.773,8.815c-1.525,3.417 -3.463,8.881 -4.306,12.141c-0.843,3.261 -2.823,8.74 -4.399,12.176c-1.577,3.436 -2.867,7.403 -2.867,8.814c0,1.412 -0.537,2.933 -1.195,3.381c-0.657,0.448 -1.195,1.947 -1.195,3.332c0,1.385 -1.261,5.648 -2.802,9.473c-1.541,3.825 -3.51,9.03 -4.375,11.566c-0.866,2.536 -2.026,5.174 -2.577,5.862c-0.553,0.688 -1.005,2.58 -1.005,4.203c0,1.624 -0.537,3.319 -1.195,3.767c-0.657,0.448 -1.195,2.273 -1.195,4.056c0,1.783 -1.345,5.589 -2.989,8.458c-1.643,2.87 -2.988,6.676 -2.988,8.459c0,1.783 -0.538,3.608 -1.195,4.056c-0.658,0.448 -1.196,1.934 -1.196,3.302c0,1.368 -1.345,5.274 -2.988,8.681c-1.644,3.406 -2.989,7.256 -2.989,8.554c0,1.299 -0.538,2.727 -1.195,3.175c-0.657,0.448 -1.195,2.523 -1.195,4.611c0,2.088 -0.538,4.163 -1.196,4.611c-0.657,0.447 -1.212,2.113 -1.233,3.7c-0.037,1.587 -0.828,4.037 -1.793,5.443c-0.965,1.407 -1.755,3.49 -1.755,4.631c0,1.14 -1.57,5.621 -3.49,9.957c-3.223,7.283 -4.311,10.22 -8.533,23.034c-0.836,2.536 -2.238,6.479 -3.116,8.762c-0.878,2.283 -1.596,5.064 -1.596,6.179c0,1.116 -0.538,2.395 -1.196,2.843c-0.657,0.448 -1.195,1.854 -1.195,3.124c0,1.27 -1.076,4.763 -2.391,7.762c-1.315,3 -2.407,6.52 -2.428,7.822c-0.038,1.303 -0.828,3.52 -1.793,4.927c-0.965,1.406 -1.756,3.611 -1.756,4.9c0,1.288 -1.075,4.453 -2.39,7.033c-1.315,2.58 -2.397,5.71 -2.405,6.956c0,1.246 -1.353,4.845 -2.989,7.999c-1.635,3.153 -2.974,6.59 -2.974,7.638c0,1.048 -1.076,4.359 -2.391,7.358c-1.314,3 -2.407,6.38 -2.428,7.511c-0.037,1.132 -0.828,3.209 -1.793,4.615c-0.965,1.407 -1.755,3.612 -1.755,4.9c0,1.289 -1.076,4.454 -2.391,7.034c-1.315,2.58 -2.408,6.007 -2.429,7.615c-0.037,1.608 -0.827,4.074 -1.793,5.481c-0.965,1.406 -1.755,3.361 -1.755,4.345c0,0.983 -1.076,4.242 -2.391,7.241c-1.315,2.999 -2.39,6.492 -2.39,7.762c0,1.271 -0.497,2.648 -1.103,3.061c-0.607,0.414 -1.479,2.632 -1.937,4.929c-0.458,2.298 -1.843,6.162 -3.08,8.588c-1.236,2.426 -2.248,5.839 -2.248,7.586c0,1.746 -0.538,3.542 -1.195,3.989c-0.658,0.448 -1.212,2.113 -1.233,3.701c-0.038,1.587 -0.828,4.037 -1.793,5.443c-0.966,1.407 -1.756,3.891 -1.756,5.521c0,1.63 -0.538,3.33 -1.195,3.778c-0.658,0.448 -1.195,2.044 -1.195,3.547c0,3.39 -7.729,20.432 -11.087,24.447c-2.356,2.816 -5.937,1.846 -7.124,2.215c0,0 0,0.001 0,0.001Z" style="fill:#2f3137;fill-rule:nonzero;"/></g></g></svg>