<?xml version="1.0" encoding="UTF-8" standalone="no"?><!DOCTYPE svg PUBLIC "-//W3C//DTD SVG 1.1//EN" "http://www.w3.org/Graphics/SVG/1.1/DTD/svg11.dtd"><svg width="100%" height="100%" viewBox="0 0 5334 3000" version="1.1" xmlns="http://www.w3.org/2000/svg" xmlns:xlink="http://www.w3.org/1999/xlink" xml:space="preserve" xmlns:serif="http://www.serif.com/" style="fill-rule:evenodd;clip-rule:evenodd;stroke-linejoin:round;stroke-miterlimit:2;"><g><g><g><text x="1356.82px" y="1662.47px" style="font-family:'CoolveticaRg-Regular', 'Coolvetica', sans-serif;font-size:641.162px;fill:#fff;">W<tspan x="1830.86px 2138.13px 2458.24px 2605.46px 2949.39px 3256.05px 3540.72px 3817.45px 4124.72px 4585.33px " y="1662.47px 1662.47px 1662.47px 1662.47px 1662.47px 1662.47px 1662.47px 1662.47px 1662.47px 1662.47px ">eb Systems</tspan></text></g></g><g id="Capa1"><ellipse id="primario" cx="689.96" cy="1470.83" rx="439.96" ry="395.833" style="fill:#fff;"/><ellipse id="secundario" cx="689.96" cy="1470.83" rx="394.13" ry="354.601" style="fill:#333;"/><g id="w"><path id="path829" d="M539.296,1732.75c-0.395,-0.089 -1.252,-0.534 -2.375,-0.534c-1.122,0 -2.187,-0.235 -2.366,-0.522c-0.179,-0.287 -0.844,-0.529 -1.477,-0.538c-0.634,-0.008 -1.612,-0.361 -2.174,-0.782c-0.561,-0.421 -1.381,-0.766 -1.822,-0.766c-1.136,0 -9.236,-3.99 -10.033,-4.943c-0.365,-0.436 -0.893,-0.793 -1.173,-0.793c-0.617,0 -2.654,-1.513 -6.492,-4.823c-1.58,-1.362 -3.134,-2.477 -3.454,-2.477c-0.836,0 -8.874,-7.87 -8.874,-8.689c0,-0.377 -1.124,-1.967 -2.498,-3.534c-3.339,-3.806 -4.865,-5.826 -4.865,-6.437c0,-0.278 -0.382,-0.82 -0.848,-1.204c-0.956,-0.786 -4.697,-8.308 -5.231,-10.515c-0.192,-0.791 -0.559,-1.568 -0.816,-1.725c-0.257,-0.158 -0.468,-0.846 -0.468,-1.529c0,-0.683 -0.236,-1.387 -0.526,-1.564c-0.308,-0.189 -0.526,-3.211 -0.526,-7.301c0,-4.089 0.218,-7.111 0.526,-7.3c0.29,-0.177 0.526,-0.871 0.526,-1.542c0,-0.671 0.589,-2.241 1.309,-3.489c0.719,-1.248 1.311,-2.783 1.315,-3.412c0,-0.628 0.242,-1.287 0.532,-1.464c0.289,-0.178 0.526,-0.756 0.526,-1.287c0,-0.53 0.562,-2.1 1.249,-3.489c0.688,-1.388 1.539,-3.581 1.892,-4.871c0.354,-1.291 0.856,-2.754 1.117,-3.252c0.261,-0.498 0.475,-1.239 0.475,-1.647c0,-0.407 0.562,-1.877 1.249,-3.266c0.688,-1.389 1.545,-3.581 1.904,-4.871c0.36,-1.291 1.218,-3.435 1.906,-4.764c0.689,-1.329 1.252,-2.899 1.252,-3.489c0,-0.589 0.236,-1.217 0.526,-1.394c0.289,-0.177 0.526,-0.734 0.526,-1.237c0,-0.503 0.548,-2.073 1.218,-3.489c0.67,-1.416 1.529,-3.63 1.909,-4.921c0.38,-1.29 1.252,-3.543 1.937,-5.006c0.686,-1.462 1.246,-2.932 1.246,-3.266c0,-0.333 0.205,-1.014 0.456,-1.512c0.251,-0.498 0.724,-1.668 1.052,-2.6c0.328,-0.932 0.866,-2.457 1.195,-3.39c0.329,-0.932 0.921,-2.317 1.315,-3.078c0.394,-0.762 0.716,-1.752 0.716,-2.201c0,-0.449 0.435,-1.586 0.967,-2.526c0.532,-0.941 1.1,-2.298 1.262,-3.015c0.163,-0.717 0.77,-2.476 1.351,-3.91c0.58,-1.434 1.346,-3.429 1.7,-4.433c0.355,-1.003 0.851,-2.232 1.101,-2.73c0.251,-0.498 0.456,-1.263 0.456,-1.699c0,-0.436 0.567,-1.906 1.261,-3.266c0.693,-1.36 1.55,-3.529 1.904,-4.819c0.353,-1.291 1.206,-3.435 1.894,-4.764c0.688,-1.329 1.251,-2.899 1.251,-3.489c0,-0.589 0.237,-1.217 0.526,-1.394c0.29,-0.177 0.526,-0.805 0.526,-1.394c0,-0.59 0.564,-2.16 1.252,-3.489c0.688,-1.33 1.541,-3.473 1.894,-4.764c0.354,-1.29 1.211,-3.459 1.904,-4.819c0.694,-1.361 1.261,-2.931 1.261,-3.489c0,-0.559 0.237,-1.161 0.526,-1.339c0.289,-0.177 0.526,-0.802 0.526,-1.389c0,-0.586 0.543,-2.156 1.206,-3.489c0.663,-1.332 1.519,-3.478 1.902,-4.768c0.382,-1.291 1.121,-3.285 1.641,-4.433c0.521,-1.147 1.066,-2.555 1.213,-3.128c0.506,-1.982 2.583,-7.302 3.043,-7.796c0.254,-0.272 0.469,-0.976 0.478,-1.564c0.017,-0.588 0.364,-1.525 0.789,-2.081c0.425,-0.557 0.772,-1.43 0.772,-1.94c0,-0.51 0.474,-1.763 1.052,-2.784c0.579,-1.021 1.052,-2.295 1.052,-2.831c0,-0.535 0.589,-1.995 1.308,-3.243c0.72,-1.248 1.312,-2.783 1.315,-3.412c0,-0.628 0.243,-1.287 0.532,-1.465c0.29,-0.177 0.526,-0.756 0.526,-1.286c0,-0.53 0.563,-2.1 1.25,-3.489c0.687,-1.389 1.54,-3.581 1.894,-4.871c0.355,-1.291 1.213,-3.46 1.906,-4.82c0.694,-1.36 1.261,-2.83 1.261,-3.266c0,-0.436 0.205,-1.2 0.456,-1.698c0.25,-0.498 0.745,-1.727 1.1,-2.731c0.355,-1.004 1.121,-2.998 1.701,-4.432c0.581,-1.434 1.188,-3.194 1.351,-3.911c0.162,-0.717 0.73,-2.073 1.262,-3.014c0.532,-0.941 0.967,-2.083 0.967,-2.537c0,-0.454 0.563,-1.914 1.252,-3.243c0.688,-1.33 1.54,-3.473 1.894,-4.764c0.354,-1.29 1.21,-3.459 1.904,-4.819c0.694,-1.36 1.261,-2.93 1.261,-3.489c0,-0.559 0.237,-1.161 0.526,-1.338c0.289,-0.178 0.526,-0.786 0.526,-1.352c0,-0.566 0.549,-2.136 1.22,-3.489c0.671,-1.353 1.53,-3.516 1.909,-4.806c0.379,-1.291 1.25,-3.543 1.936,-5.006c0.685,-1.462 1.246,-3.033 1.246,-3.489c0,-0.456 0.236,-0.975 0.526,-1.152c0.289,-0.177 0.526,-0.78 0.526,-1.34c0,-0.56 0.492,-2.13 1.094,-3.489c2.333,-5.267 2.587,-5.919 2.587,-6.645c0,-0.411 0.473,-1.584 1.052,-2.605c0.578,-1.021 1.059,-2.378 1.068,-3.014c0.017,-0.637 0.365,-1.613 0.789,-2.17c0.425,-0.556 0.772,-1.33 0.772,-1.72c0,-0.389 0.474,-1.679 1.052,-2.866c0.579,-1.187 1.052,-2.57 1.052,-3.073c0,-0.502 0.219,-1.048 0.485,-1.211c0.267,-0.164 0.651,-1.042 0.852,-1.951c0.202,-0.91 0.811,-2.439 1.355,-3.399c0.544,-0.961 0.989,-2.2 0.989,-2.755c0,-0.554 0.592,-2.059 1.315,-3.343c0.723,-1.285 1.315,-2.804 1.315,-3.377c0,-0.574 0.237,-1.188 0.526,-1.365c0.289,-0.177 0.526,-0.734 0.526,-1.237c0,-0.503 0.548,-2.073 1.218,-3.489c0.67,-1.416 1.523,-3.63 1.896,-4.921c0.373,-1.29 1.127,-3.248 1.675,-4.351c0.548,-1.102 0.996,-2.336 0.996,-2.741c0,-0.405 0.567,-1.85 1.261,-3.21c0.693,-1.36 1.55,-3.529 1.904,-4.82c0.353,-1.29 1.206,-3.434 1.894,-4.763c0.689,-1.33 1.252,-2.756 1.252,-3.171c0,-0.414 0.59,-1.908 1.312,-3.319c0.722,-1.41 1.314,-2.962 1.315,-3.447c0,-0.485 0.239,-1.026 0.528,-1.204c0.289,-0.177 0.526,-0.789 0.526,-1.359c0,-0.571 0.473,-2.009 1.052,-3.196c0.578,-1.187 1.052,-2.419 1.052,-2.737c0,-0.319 0.828,-2.183 1.84,-4.143c1.013,-1.96 1.841,-3.839 1.841,-4.176c0,-0.79 5.308,-11.349 6.302,-12.536c0.416,-0.497 1.003,-1.315 1.303,-1.817c1.453,-2.426 3.413,-5.07 4.423,-5.966c0.616,-0.546 1.12,-1.34 1.12,-1.765c0,-1.022 9.292,-10.412 11.307,-11.426c0.868,-0.436 2.288,-1.449 3.155,-2.249c1.904,-1.757 13.84,-7.814 15.398,-7.814c0.609,0 1.253,-0.234 1.432,-0.521c0.178,-0.287 0.888,-0.522 1.577,-0.522c0.689,0 1.399,-0.234 1.578,-0.521c0.179,-0.287 1.08,-0.53 2.003,-0.54c0.923,-0.01 2.27,-0.354 2.993,-0.764c0.723,-0.41 2.628,-0.753 4.234,-0.763c1.605,-0.01 3.166,-0.264 3.469,-0.564c0.359,-0.356 3.727,-0.465 9.703,-0.314c10.008,0.254 15.364,0.813 17.138,1.791c0.632,0.348 1.861,0.632 2.73,0.632c0.87,0 1.728,0.235 1.907,0.522c0.178,0.287 1.243,0.521 2.366,0.521c1.123,0 2.188,0.235 2.367,0.522c0.179,0.287 0.749,0.521 1.268,0.521c1.083,0 13.961,6.362 15.288,7.552c0.485,0.435 1.118,0.791 1.406,0.791c0.288,0 1.08,0.587 1.759,1.304c0.68,0.717 1.505,1.304 1.834,1.304c0.647,0 9.831,9.331 11.609,11.795c0.596,0.826 1.518,2.44 2.05,3.587c0.531,1.147 1.151,2.207 1.378,2.355c0.612,0.4 3.64,6.248 3.64,7.031c0,0.371 1.42,3.441 3.155,6.822c1.736,3.381 3.156,6.449 3.156,6.819c0,0.637 0.581,2.04 3.48,8.402c0.689,1.512 1.253,3.199 1.253,3.75c0,0.55 0.237,1.145 0.526,1.322c0.289,0.178 0.526,0.78 0.526,1.339c0,0.558 0.559,2.129 1.242,3.489c1.2,2.387 1.607,3.406 3.384,8.469c0.453,1.291 1.254,3.117 1.78,4.057c0.526,0.941 0.957,2.034 0.957,2.429c0,0.395 0.554,1.855 1.231,3.243c0.677,1.389 1.505,3.288 1.841,4.22c0.335,0.932 0.883,2.457 1.217,3.389c0.334,0.933 1.163,2.783 1.841,4.112c0.678,1.33 1.232,2.789 1.232,3.243c0,0.455 0.474,1.662 1.052,2.683c0.579,1.021 1.052,2.215 1.052,2.653c0,0.438 0.592,1.847 1.315,3.132c0.723,1.284 1.315,2.748 1.315,3.253c0,0.505 0.823,2.432 1.829,4.283c1.005,1.851 1.834,3.769 1.84,4.262c0,0.493 0.485,1.732 1.064,2.754c0.578,1.021 1.052,2.106 1.052,2.412c0,0.306 0.828,2.286 1.84,4.402c1.013,2.115 1.841,4.062 1.841,4.327c0,0.265 1.183,2.854 2.63,5.755c1.446,2.9 2.629,5.577 2.629,5.949c0,1.093 2.564,5.874 3.693,6.888c0.572,0.513 1.04,1.208 1.04,1.543c0,0.958 2.323,2.878 3.481,2.878c1.023,0 4.408,-2.991 4.408,-3.894c0,-0.251 0.359,-0.849 0.797,-1.329c1.047,-1.147 4.988,-8.848 4.988,-9.747c0,-0.384 0.828,-2.33 1.841,-4.323c1.012,-1.993 1.842,-3.923 1.843,-4.289c0,-0.366 0.83,-2.263 1.841,-4.216c1.011,-1.954 1.838,-3.877 1.838,-4.275c0,-0.397 0.592,-1.826 1.315,-3.174c0.723,-1.349 1.314,-2.725 1.314,-3.059c0,-0.333 0.474,-1.578 1.052,-2.765c0.579,-1.187 1.052,-2.474 1.052,-2.859c0,-0.386 0.823,-2.216 1.829,-4.067c1.006,-1.851 1.834,-3.767 1.841,-4.259c0,-0.492 0.603,-1.945 1.326,-3.229c0.723,-1.284 1.315,-2.693 1.315,-3.131c0,-0.438 0.473,-1.632 1.052,-2.654c0.578,-1.021 1.052,-2.209 1.052,-2.64c0,-0.431 0.591,-1.941 1.314,-3.356c0.724,-1.415 1.315,-2.924 1.315,-3.354c0,-0.429 0.592,-1.831 1.315,-3.116c0.723,-1.284 1.315,-2.693 1.315,-3.131c0,-0.438 0.473,-1.632 1.052,-2.653c0.578,-1.021 1.051,-2.21 1.051,-2.641c0,-0.431 0.592,-1.941 1.315,-3.356c0.723,-1.415 1.319,-2.873 1.325,-3.241c0,-0.368 0.834,-2.282 1.841,-4.252c1.006,-1.971 1.83,-3.899 1.83,-4.286c0,-0.387 0.474,-1.539 1.052,-2.561c0.579,-1.021 1.055,-2.26 1.058,-2.753c0,-0.493 0.596,-1.918 1.315,-3.166c0.72,-1.248 1.309,-2.629 1.309,-3.068c0,-0.439 0.828,-2.41 1.84,-4.38c1.013,-1.969 1.842,-3.874 1.844,-4.232c0,-0.884 8.716,-18.056 9.717,-19.153c0.439,-0.48 0.798,-1.111 0.798,-1.402c0,-0.976 10.227,-9.843 14.463,-12.539c2.706,-1.723 11.062,-5.883 11.816,-5.883c0.318,0 1.745,-0.587 3.172,-1.304c1.427,-0.717 3.139,-1.304 3.803,-1.304c0.665,0 2.507,-0.507 4.093,-1.127c1.587,-0.619 4.305,-1.226 6.041,-1.347c1.735,-0.121 3.38,-0.436 3.655,-0.698c0.275,-0.263 2.687,-0.478 5.36,-0.478c2.673,0 5.006,-0.234 5.184,-0.521c0.412,-0.66 9.348,-0.69 10.019,-0.033c0.275,0.269 2.985,0.598 6.022,0.731c6.426,0.283 10.834,0.921 12.456,1.805c0.631,0.344 1.86,0.625 2.73,0.625c0.869,0 1.727,0.235 1.906,0.522c0.179,0.287 0.889,0.521 1.578,0.521c0.689,0 1.399,0.235 1.577,0.522c0.179,0.287 0.879,0.521 1.556,0.521c0.676,0 2.26,0.584 3.518,1.298c1.259,0.713 2.667,1.3 3.129,1.303c1.021,0.008 4.017,1.446 4.446,2.135c0.171,0.274 1.453,1.073 2.85,1.774c3.783,1.901 6.838,4.08 9.46,6.748c1.29,1.312 2.651,2.386 3.024,2.386c0.374,0 0.68,0.298 0.68,0.664c0,0.365 1.893,2.53 4.207,4.811c2.314,2.281 4.207,4.353 4.207,4.605c0,0.252 0.592,1.156 1.315,2.008c0.723,0.852 1.315,1.854 1.315,2.228c0,0.373 0.35,0.966 0.778,1.318c0.986,0.812 2.19,3.19 2.638,5.212c0.19,0.86 0.564,1.698 0.832,1.861c0.266,0.164 0.485,0.857 0.485,1.54c0,0.683 0.237,1.387 0.526,1.564c0.289,0.177 0.526,1.233 0.526,2.347c0,1.113 0.236,2.169 0.526,2.346c0.669,0.41 0.707,15.51 0.041,16.191c-0.267,0.273 -0.604,2.138 -0.75,4.146c-0.335,4.62 -0.863,7.66 -1.459,8.398c-0.494,0.613 -1.422,4.389 -1.877,7.639c-0.151,1.078 -0.485,2.089 -0.744,2.247c-0.259,0.159 -0.47,1.199 -0.47,2.313c0,1.113 -0.237,2.169 -0.526,2.346c-0.29,0.177 -0.526,0.8 -0.526,1.385c0,0.584 -0.331,1.684 -0.735,2.446c-0.404,0.761 -1.019,2.44 -1.366,3.73c-0.347,1.291 -0.845,2.754 -1.106,3.252c-0.261,0.498 -0.482,1.319 -0.491,1.825c-0.017,0.506 -0.365,1.375 -0.789,1.932c-0.425,0.557 -0.772,1.54 -0.772,2.185c0,0.646 -0.237,1.319 -0.526,1.496c-0.289,0.177 -0.526,0.771 -0.526,1.319c0,0.548 -0.563,2.235 -1.251,3.749c-0.688,1.515 -1.546,3.692 -1.905,4.839c-0.36,1.147 -0.862,2.494 -1.116,2.992c-0.254,0.498 -0.461,1.268 -0.461,1.712c0,0.443 -0.549,1.913 -1.22,3.266c-0.671,1.352 -1.523,3.515 -1.892,4.806c-0.37,1.29 -0.886,2.754 -1.147,3.252c-0.261,0.498 -0.475,1.287 -0.475,1.754c0,0.467 -0.563,1.937 -1.251,3.266c-0.689,1.33 -1.54,3.473 -1.892,4.764c-0.352,1.29 -0.854,2.754 -1.115,3.252c-0.261,0.498 -0.475,1.283 -0.475,1.744c0,0.462 -0.331,1.462 -0.735,2.224c-0.404,0.761 -1.02,2.44 -1.368,3.73c-0.349,1.291 -1.201,3.46 -1.895,4.82c-0.693,1.36 -1.261,2.83 -1.261,3.266c0,0.436 -0.214,1.2 -0.475,1.698c-0.261,0.498 -0.762,1.962 -1.115,3.252c-0.352,1.291 -1.203,3.435 -1.892,4.764c-0.688,1.329 -1.251,2.799 -1.251,3.266c0,0.467 -0.214,1.257 -0.475,1.755c-0.261,0.498 -0.777,1.961 -1.146,3.252c-0.37,1.29 -1.221,3.453 -1.892,4.806c-0.671,1.352 -1.22,2.922 -1.22,3.489c0,0.566 -0.21,1.157 -0.466,1.314c-0.255,0.157 -0.584,0.933 -0.729,1.726c-0.145,0.792 -0.742,2.613 -1.327,4.047c-0.584,1.434 -1.352,3.429 -1.707,4.432c-0.355,1.004 -0.85,2.233 -1.101,2.731c-0.25,0.498 -0.455,1.333 -0.455,1.856c0,0.522 -0.348,1.406 -0.772,1.962c-0.425,0.557 -0.78,1.379 -0.789,1.827c-0.017,0.448 -0.49,1.786 -1.069,2.973c-0.578,1.187 -1.059,2.581 -1.068,3.096c-0.017,0.516 -0.365,1.394 -0.789,1.95c-0.425,0.557 -0.772,1.415 -0.772,1.906c0,0.492 -0.443,1.797 -0.984,2.899c-1.089,2.218 -3.192,8.056 -3.635,10.087c-0.156,0.717 -0.719,2.074 -1.251,3.014c-0.532,0.941 -0.967,2.078 -0.967,2.527c0,0.449 -0.331,1.439 -0.735,2.2c-0.405,0.762 -1.02,2.44 -1.369,3.731c-0.348,1.291 -1.201,3.459 -1.894,4.82c-0.694,1.36 -1.261,2.83 -1.261,3.266c0,0.436 -0.214,1.2 -0.475,1.698c-0.261,0.498 -0.763,1.962 -1.115,3.252c-0.352,1.291 -1.204,3.434 -1.892,4.764c-0.688,1.329 -1.252,2.899 -1.252,3.489c0,0.589 -0.236,1.217 -0.525,1.394c-0.29,0.177 -0.526,0.734 -0.526,1.237c0,0.503 -0.549,2.073 -1.219,3.489c-0.67,1.416 -1.521,3.63 -1.892,4.921c-0.37,1.29 -0.887,2.754 -1.148,3.252c-0.261,0.498 -0.475,1.239 -0.475,1.646c0,0.408 -0.562,1.878 -1.249,3.266c-0.688,1.389 -1.539,3.581 -1.892,4.872c-0.353,1.29 -0.856,2.754 -1.117,3.252c-0.261,0.498 -0.475,1.225 -0.475,1.617c0,0.391 -0.591,1.815 -1.315,3.163c-0.723,1.349 -1.314,2.895 -1.314,3.436c0,0.542 -0.237,1.13 -0.526,1.307c-0.29,0.177 -0.534,0.954 -0.543,1.726c-0.016,0.771 -0.364,1.858 -0.789,2.415c-0.424,0.557 -0.772,1.331 -0.772,1.72c0,0.389 -0.473,1.679 -1.052,2.866c-0.578,1.187 -1.052,2.57 -1.052,3.073c0,0.503 -0.209,1.042 -0.465,1.199c-0.256,0.157 -0.585,0.934 -0.732,1.726c-0.348,1.872 -2.48,7.554 -3.074,8.193c-0.254,0.272 -0.469,0.976 -0.479,1.564c0,0.588 -0.364,1.525 -0.788,2.081c-0.425,0.557 -0.773,1.393 -0.773,1.858c0,0.465 -0.473,1.816 -1.051,3.004c-0.579,1.187 -1.052,2.592 -1.052,3.122c0,0.53 -0.204,1.187 -0.453,1.459c-0.248,0.273 -0.873,1.786 -1.387,3.363c-0.514,1.578 -1.356,3.807 -1.869,4.954c-0.514,1.147 -1.054,2.555 -1.201,3.129c-0.507,1.981 -2.584,7.302 -3.043,7.795c-0.254,0.273 -0.462,1.022 -0.462,1.664c0,0.643 -0.218,1.303 -0.485,1.466c-0.267,0.164 -0.639,0.989 -0.826,1.834c-0.187,0.845 -0.797,2.473 -1.355,3.619c-0.558,1.145 -1.015,2.438 -1.015,2.872c0,0.434 -0.592,1.839 -1.315,3.123c-0.723,1.285 -1.315,2.804 -1.315,3.378c0,0.573 -0.236,1.187 -0.526,1.364c-0.289,0.177 -0.525,0.734 -0.525,1.236c0,0.503 -0.464,1.866 -1.031,3.029c-0.963,1.977 -1.562,3.472 -3.201,7.989c-0.364,1.004 -1.455,3.433 -2.423,5.398c-0.968,1.966 -1.76,3.885 -1.76,4.264c0,0.38 -0.828,2.267 -1.841,4.193c-1.012,1.925 -1.84,3.846 -1.84,4.267c0,1.125 -8.195,17.131 -10.438,20.387c-1.057,1.534 -2.203,3.294 -2.548,3.91c-0.768,1.374 -14.612,14.797 -16.753,16.244c-2.489,1.682 -7.145,3.911 -8.17,3.911c-0.521,0 -1.093,0.234 -1.272,0.521c-0.179,0.287 -1.007,0.521 -1.841,0.521c-0.833,0 -1.661,0.235 -1.84,0.522c-0.179,0.287 -1.317,0.53 -2.529,0.54c-1.213,0.009 -2.796,0.354 -3.519,0.763c-0.816,0.463 -2.85,0.753 -5.36,0.764c-2.224,0.01 -4.191,0.253 -4.37,0.54c-0.208,0.335 -8.409,0.522 -22.877,0.522c-14.467,0 -22.668,-0.187 -22.877,-0.522c-0.179,-0.287 -1.672,-0.53 -3.318,-0.54c-1.646,-0.01 -3.584,-0.354 -4.308,-0.764c-0.723,-0.409 -2.07,-0.753 -2.993,-0.763c-0.922,-0.01 -1.824,-0.253 -2.003,-0.54c-0.179,-0.287 -0.889,-0.522 -1.577,-0.522c-0.689,0 -1.399,-0.234 -1.578,-0.521c-0.179,-0.287 -0.873,-0.521 -1.543,-0.521c-1.56,0 -5.781,-2.296 -8.32,-4.525c-1.085,-0.953 -2.274,-1.733 -2.642,-1.733c-0.841,0 -8.795,-7.888 -8.795,-8.722c0,-0.339 -0.565,-1.177 -1.256,-1.862c-1.419,-1.407 -3.725,-4.729 -5.376,-7.743c-0.611,-1.116 -1.462,-2.434 -1.891,-2.931c-0.943,-1.093 -9.884,-18.965 -9.884,-19.759c0,-0.308 -1.065,-2.63 -2.366,-5.159c-1.302,-2.53 -2.372,-4.966 -2.379,-5.414c0,-0.448 -0.835,-2.33 -1.84,-4.18c-1.006,-1.851 -1.829,-3.78 -1.829,-4.286c0,-0.507 -0.474,-1.757 -1.052,-2.778c-0.579,-1.021 -1.052,-2.215 -1.052,-2.653c0,-0.438 -0.592,-1.847 -1.315,-3.131c-0.723,-1.285 -1.314,-2.673 -1.314,-3.085c0,-0.71 -0.549,-2.047 -3.481,-8.481c-0.689,-1.512 -1.253,-3.083 -1.253,-3.492c0,-0.409 -0.591,-1.846 -1.314,-3.195c-0.724,-1.348 -1.315,-2.724 -1.315,-3.058c0,-0.334 -0.474,-1.578 -1.052,-2.765c-0.579,-1.187 -1.052,-2.404 -1.052,-2.705c0,-0.3 -0.828,-2.157 -1.841,-4.127c-1.012,-1.969 -1.84,-3.94 -1.84,-4.379c0,-0.44 -0.589,-1.82 -1.309,-3.068c-0.719,-1.249 -1.311,-2.63 -1.314,-3.07c-0.017,-1.271 -6.467,-13.781 -7.906,-15.318c-2.027,-2.164 -2.848,-2.466 -4.656,-1.713c-1.608,0.671 -3.748,3.144 -4.823,5.576c-0.317,0.717 -0.941,1.703 -1.387,2.192c-0.998,1.093 -3.323,5.583 -3.323,6.417c0,0.335 -1.05,2.701 -2.333,5.256c-2.159,4.301 -2.722,5.628 -4.52,10.644c-0.36,1.004 -1.214,2.938 -1.897,4.298c-0.683,1.36 -1.242,2.82 -1.242,3.243c0,0.424 -0.474,1.606 -1.052,2.627c-0.579,1.022 -1.052,2.21 -1.052,2.641c0,0.431 -0.592,1.941 -1.315,3.356c-0.723,1.415 -1.315,2.924 -1.315,3.354c0,0.429 -0.591,1.831 -1.314,3.116c-0.724,1.284 -1.315,2.693 -1.315,3.131c0,0.438 -0.473,1.632 -1.052,2.653c-0.578,1.021 -1.055,2.26 -1.058,2.753c0,0.494 -0.595,1.918 -1.315,3.167c-0.72,1.248 -1.308,2.608 -1.308,3.023c0,0.415 -0.474,1.725 -1.052,2.913c-0.579,1.187 -1.059,2.525 -1.069,2.973c0,0.448 -0.364,1.27 -0.788,1.827c-0.425,0.556 -0.773,1.391 -0.773,1.855c0,0.463 -0.827,2.471 -1.839,4.463c-1.011,1.991 -1.839,3.908 -1.84,4.261c0,0.937 -8.332,17.426 -9.422,18.652c-0.51,0.574 -1.416,2.099 -2.012,3.39c-0.596,1.29 -1.699,2.915 -2.452,3.61c-0.752,0.696 -1.368,1.495 -1.368,1.778c0,1.452 -12.508,13.905 -13.966,13.905c-0.236,0 -0.922,0.46 -1.525,1.022c-1.462,1.361 -11.526,6.278 -12.851,6.278c-0.576,0 -1.193,0.235 -1.372,0.522c-0.178,0.287 -1.08,0.53 -2.003,0.54c-0.923,0.009 -2.27,0.354 -2.993,0.763c-0.759,0.431 -2.77,0.753 -4.759,0.764c-1.895,0.01 -3.67,0.239 -3.945,0.509c-0.676,0.663 -9.727,1.069 -30.568,1.37c-11.628,0.168 -14.817,-0.235 -17.781,-0.283c0,0 0.001,0 0,0Zm-64.556,-80.612c-1.028,-2.21 -5.569,-11.133 -6.173,-13.261c-0.367,-1.291 -1.23,-3.434 -1.918,-4.764c-0.688,-1.329 -1.252,-2.799 -1.252,-3.266c0,-0.467 -0.213,-1.256 -0.474,-1.754c-0.261,-0.498 -0.763,-1.962 -1.115,-3.252c-0.352,-1.291 -1.204,-3.435 -1.892,-4.764c-0.689,-1.329 -1.252,-2.899 -1.252,-3.489c0,-0.59 -0.236,-1.217 -0.526,-1.394c-0.289,-0.177 -0.528,-0.837 -0.532,-1.465c-0.003,-0.628 -0.595,-2.164 -1.315,-3.412c-0.719,-1.248 -1.308,-2.609 -1.308,-3.023c0,-0.415 -0.473,-1.726 -1.052,-2.913c-0.578,-1.187 -1.059,-2.525 -1.068,-2.973c-0.01,-0.448 -0.365,-1.27 -0.789,-1.827c-0.425,-0.557 -0.772,-1.392 -0.772,-1.857c0,-0.465 -0.474,-1.817 -1.052,-3.004c-0.579,-1.187 -1.052,-2.625 -1.052,-3.196c0,-0.571 -0.237,-1.182 -0.526,-1.36c-0.289,-0.177 -0.527,-0.719 -0.529,-1.204c-0.002,-0.485 -0.357,-1.553 -0.789,-2.375c-0.432,-0.821 -0.786,-1.822 -0.786,-2.223c0,-0.401 -0.213,-1.137 -0.474,-1.635c-0.261,-0.498 -0.777,-1.962 -1.147,-3.252c-0.37,-1.291 -1.221,-3.454 -1.892,-4.806c-0.671,-1.353 -1.22,-2.923 -1.22,-3.489c0,-0.566 -0.209,-1.158 -0.465,-1.315c-0.256,-0.157 -0.584,-0.933 -0.73,-1.725c-0.145,-0.793 -0.742,-2.614 -1.326,-4.048c-0.585,-1.434 -1.353,-3.428 -1.708,-4.432c-0.355,-1.004 -0.85,-2.233 -1.1,-2.731c-0.251,-0.498 -0.456,-1.283 -0.456,-1.744c0,-0.462 -0.322,-1.462 -0.716,-2.224c-0.394,-0.761 -0.963,-2.088 -1.265,-2.948c-1.452,-4.136 -1.958,-5.399 -3.099,-7.739c-0.677,-1.389 -1.231,-2.849 -1.231,-3.244c0,-0.395 -0.445,-1.503 -0.989,-2.464c-0.544,-0.96 -1.154,-2.489 -1.355,-3.399c-0.202,-0.909 -0.585,-1.787 -0.852,-1.951c-0.267,-0.163 -0.485,-1.208 -0.485,-2.321c0,-1.114 -0.237,-2.17 -0.526,-2.347c-0.289,-0.177 -0.526,-1.134 -0.526,-2.127c0,-1.027 -0.567,-2.695 -1.315,-3.87c-0.723,-1.135 -1.315,-2.532 -1.315,-3.102c0,-0.571 -0.473,-1.873 -1.051,-2.894c-0.579,-1.021 -1.052,-2.274 -1.052,-2.784c0,-0.51 -0.348,-1.383 -0.772,-1.94c-0.425,-0.557 -0.78,-1.379 -0.789,-1.827c-0.01,-0.448 -0.611,-2.037 -1.338,-3.53c-1.645,-3.38 -2.902,-6.686 -3.26,-8.567c-0.15,-0.793 -0.483,-1.569 -0.739,-1.726c-0.256,-0.157 -0.465,-1.196 -0.465,-2.309c0,-1.113 -0.237,-2.169 -0.526,-2.347c-0.289,-0.177 -0.533,-0.836 -0.543,-1.464c-0.009,-0.629 -0.364,-1.598 -0.788,-2.155c-0.425,-0.557 -0.773,-1.415 -0.773,-1.906c0,-0.492 -0.448,-1.796 -0.996,-2.899c-0.547,-1.102 -1.301,-3.06 -1.674,-4.351c-0.373,-1.291 -1.226,-3.505 -1.896,-4.921c-0.67,-1.416 -1.219,-2.986 -1.219,-3.489c0,-0.503 -0.236,-1.06 -0.526,-1.237c-0.289,-0.177 -0.525,-0.85 -0.525,-1.495c0,-0.646 -0.348,-1.629 -0.773,-2.186c-0.424,-0.556 -0.779,-1.434 -0.788,-1.95c-0.01,-0.515 -0.49,-1.909 -1.069,-3.096c-0.578,-1.187 -1.059,-2.525 -1.069,-2.973c-0.009,-0.448 -0.364,-1.27 -0.788,-1.827c-0.425,-0.556 -0.773,-1.44 -0.773,-1.962c0,-0.523 -0.213,-1.358 -0.474,-1.856c-0.261,-0.498 -0.758,-1.961 -1.103,-3.252c-0.346,-1.291 -0.842,-2.754 -1.103,-3.252c-0.261,-0.498 -0.475,-1.178 -0.475,-1.512c0,-0.334 -0.562,-1.804 -1.249,-3.266c-0.687,-1.463 -1.618,-3.833 -2.07,-5.267c-0.752,-2.385 -1.483,-4.546 -2.472,-7.3c-0.897,-2.5 -1.572,-4.814 -1.572,-5.392c0,-0.344 -0.591,-1.555 -1.315,-2.69c-0.723,-1.136 -1.314,-2.543 -1.314,-3.126c0,-0.583 -0.217,-1.468 -0.483,-1.966c-0.265,-0.498 -0.878,-2.254 -1.363,-3.902c-0.485,-1.649 -1.096,-3.129 -1.358,-3.29c-0.263,-0.161 -0.478,-0.969 -0.478,-1.796c0,-0.826 -0.236,-1.647 -0.526,-1.825c-0.289,-0.177 -0.526,-0.881 -0.526,-1.564c0,-0.683 -0.209,-1.37 -0.465,-1.527c-0.256,-0.157 -0.584,-0.933 -0.729,-1.726c-0.146,-0.792 -0.765,-2.727 -1.376,-4.301c-0.611,-1.573 -1.111,-3.495 -1.111,-4.271c0,-0.775 -0.237,-1.555 -0.526,-1.732c-0.289,-0.178 -0.526,-0.899 -0.526,-1.603c0,-0.704 -0.207,-1.687 -0.461,-2.185c-1.121,-2.198 -2.168,-4.914 -2.168,-5.623c0,-0.425 -0.209,-1.179 -0.464,-1.677c-0.937,-1.83 -2.819,-7.741 -3.07,-9.643c-0.142,-1.078 -0.47,-2.089 -0.729,-2.247c-0.259,-0.159 -0.47,-1.434 -0.47,-2.834c0,-1.4 -0.237,-2.691 -0.526,-2.868c-0.29,-0.177 -0.526,-1.585 -0.526,-3.129c0,-1.543 0.236,-2.951 0.526,-3.128c0.289,-0.178 0.526,-2.055 0.526,-4.172c0,-2.117 0.236,-3.994 0.525,-4.172c0.29,-0.177 0.534,-0.836 0.543,-1.464c0.01,-0.629 0.364,-1.598 0.789,-2.155c0.425,-0.557 0.772,-1.429 0.772,-1.939c0,-0.511 0.473,-1.763 1.052,-2.785c0.578,-1.021 1.052,-2.395 1.052,-3.053c0,-0.659 0.591,-1.748 1.315,-2.422c0.723,-0.673 1.314,-1.499 1.314,-1.835c0,-0.336 0.474,-1.035 1.052,-1.554c0.579,-0.519 1.052,-1.173 1.052,-1.452c0,-0.279 0.828,-1.417 1.841,-2.528c1.012,-1.111 1.84,-2.306 1.84,-2.655c0,-0.817 5.818,-6.662 6.631,-6.662c0.339,0 1.53,-0.816 2.646,-1.813c1.117,-0.997 2.29,-1.818 2.606,-1.825c0.317,-0.007 1.02,-0.498 1.562,-1.092c0.952,-1.044 6.01,-3.613 7.112,-3.613c0.297,0 1.6,-0.587 2.895,-1.304c1.296,-0.717 2.823,-1.303 3.396,-1.303c0.572,0 1.451,-0.212 1.953,-0.471c0.502,-0.259 1.978,-0.743 3.28,-1.075c1.302,-0.332 3.076,-0.863 3.944,-1.179c0.868,-0.315 2.998,-0.673 4.733,-0.794c1.736,-0.121 3.381,-0.434 3.656,-0.697c0.697,-0.667 29.586,-0.625 30.003,0.044c0.179,0.287 1.704,0.521 3.389,0.521c1.695,0 3.737,0.348 4.571,0.779c0.828,0.429 2.143,0.781 2.921,0.782c0.779,0.002 1.562,0.238 1.741,0.525c0.178,0.287 0.888,0.522 1.577,0.522c0.689,0 1.399,0.234 1.578,0.521c0.179,0.287 0.844,0.518 1.477,0.513c0.634,-0.005 2.336,0.559 3.782,1.251c1.446,0.692 3.221,1.52 3.944,1.84c1.881,0.831 6.045,3.293 7.183,4.247c0.533,0.447 1.624,1.088 2.423,1.427c0.8,0.338 1.732,1.263 2.071,2.056c0.339,0.793 1.31,2.185 2.157,3.094c0.848,0.908 1.809,2.116 2.137,2.683c0.799,1.382 4.439,6.814 5.655,8.44c0.537,0.717 1.452,2.287 2.033,3.488c0.581,1.201 1.276,2.319 1.544,2.483c0.643,0.394 10.034,19.029 10.034,19.91c0,0.375 0.473,1.516 1.051,2.538c0.579,1.021 1.052,2.657 1.052,3.635c0,0.978 0.237,1.923 0.526,2.101c0.289,0.177 0.527,0.719 0.528,1.204c0.001,0.485 0.829,2.51 1.84,4.502c1.012,1.991 1.839,3.898 1.839,4.239c0,0.34 0.824,2.231 1.831,4.201c1.007,1.971 1.836,4.097 1.841,4.725c0,0.629 0.22,1.272 0.477,1.429c0.258,0.158 0.62,0.934 0.806,1.726c0.186,0.791 0.779,2.377 1.319,3.524c0.54,1.148 1.383,3.435 1.873,5.084c0.49,1.648 1.106,3.128 1.368,3.289c0.263,0.161 0.478,0.858 0.478,1.55c0,0.691 0.473,2.092 1.052,3.114c0.578,1.021 1.051,2.19 1.051,2.597c0,0.408 0.807,2.336 1.793,4.286c0.986,1.95 2.191,4.894 2.678,6.543c0.487,1.648 1.101,3.129 1.363,3.29c0.263,0.16 0.477,0.868 0.477,1.572c0,0.704 0.214,1.687 0.475,2.185c0.261,0.498 0.783,1.962 1.161,3.252c0.377,1.291 1.228,3.437 1.892,4.769c0.663,1.332 1.205,2.792 1.205,3.243c0,0.452 0.474,1.657 1.052,2.678c0.579,1.021 1.052,2.107 1.052,2.414c0,0.306 0.325,1.296 0.721,2.2c0.396,0.904 1.011,2.699 1.366,3.99c0.355,1.29 0.859,2.754 1.12,3.252c1.175,2.241 0.442,7.514 -1.686,12.13c-0.529,1.148 -1.114,2.734 -1.3,3.525c-0.185,0.792 -0.548,1.568 -0.805,1.726c-0.257,0.157 -0.468,0.753 -0.468,1.324c0,0.57 -0.473,2.008 -1.052,3.195c-0.578,1.188 -1.059,2.525 -1.068,2.974c-0.016,0.448 -0.364,1.27 -0.789,1.826c-0.424,0.557 -0.772,1.44 -0.772,1.963c0,0.522 -0.214,1.358 -0.475,1.856c-0.261,0.498 -0.758,1.961 -1.105,3.251c-0.347,1.291 -1.199,3.46 -1.892,4.82c-0.694,1.36 -1.261,2.93 -1.261,3.489c0,0.559 -0.237,1.161 -0.526,1.338c-0.289,0.178 -0.526,0.786 -0.526,1.352c0,0.566 -0.549,2.136 -1.22,3.489c-0.671,1.353 -1.523,3.515 -1.894,4.806c-0.371,1.291 -1.242,3.459 -1.936,4.82c-0.694,1.36 -1.261,2.93 -1.261,3.489c0,0.558 -0.237,1.161 -0.526,1.338c-0.289,0.177 -0.526,0.771 -0.526,1.319c0,0.548 -0.555,2.235 -1.232,3.749c-0.678,1.515 -1.545,3.575 -1.925,4.578c-0.381,1.004 -0.892,2.048 -1.134,2.321c-0.243,0.272 -0.442,1.021 -0.442,1.664c0,0.643 -0.237,1.313 -0.526,1.491c-0.289,0.177 -0.526,0.899 -0.526,1.605c0,0.706 -0.592,2.213 -1.315,3.348c-0.723,1.136 -1.314,2.643 -1.314,3.349c0,0.705 -0.237,1.428 -0.526,1.605c-0.29,0.177 -0.526,0.765 -0.526,1.307c0,0.541 -0.592,2.088 -1.315,3.436c-0.723,1.349 -1.315,2.873 -1.315,3.386c0,0.514 -0.236,1.08 -0.526,1.257c-0.289,0.177 -0.526,0.999 -0.526,1.825c0,0.827 -0.236,1.648 -0.526,1.825c-0.289,0.178 -0.533,0.837 -0.542,1.465c-0.017,0.628 -0.364,1.598 -0.789,2.155c-0.425,0.556 -0.772,1.381 -0.772,1.833c0,0.451 -0.691,2.225 -1.535,3.941c-1.419,2.883 -1.897,4.045 -3.755,9.118c-0.368,1.003 -0.984,2.564 -1.371,3.468c-0.386,0.904 -0.702,2.004 -0.702,2.446c0,0.442 -0.237,0.948 -0.526,1.125c-0.289,0.177 -0.526,0.734 -0.526,1.237c0,0.502 -0.473,1.885 -1.052,3.072c-0.578,1.188 -1.059,2.581 -1.068,3.097c-0.016,0.515 -0.364,1.393 -0.789,1.949c-0.425,0.557 -0.772,1.43 -0.772,1.94c0,0.51 -0.473,1.763 -1.052,2.784c-0.578,1.021 -1.055,2.26 -1.058,2.754c0,0.493 -0.595,1.918 -1.315,3.166c-0.72,1.248 -1.308,2.608 -1.308,3.023c0,0.415 -0.474,1.726 -1.052,2.913c-0.579,1.187 -1.059,2.525 -1.069,2.973c-0.016,0.448 -0.364,1.27 -0.788,1.827c-0.425,0.556 -0.773,1.429 -0.773,1.939c0,0.51 -0.473,1.763 -1.052,2.784c-0.578,1.022 -1.059,2.378 -1.068,3.015c-0.016,0.636 -0.364,1.613 -0.789,2.169c-0.425,0.557 -0.772,1.331 -0.772,1.72c0,0.389 -0.473,1.679 -1.052,2.866c-0.578,1.188 -1.052,2.57 -1.052,3.073c0,0.503 -0.218,1.048 -0.485,1.212c-0.267,0.163 -0.65,1.041 -0.852,1.951c-0.201,0.909 -0.811,2.439 -1.355,3.399c-0.544,0.96 -0.989,2.311 -0.989,3.003c0,0.691 -0.237,1.402 -0.526,1.579c-0.289,0.177 -0.533,0.836 -0.543,1.465c-0.016,0.628 -0.364,1.598 -0.788,2.154c-0.425,0.557 -0.773,1.541 -0.773,2.186c0,0.645 -0.236,1.318 -0.526,1.495c-0.289,0.177 -0.526,0.809 -0.526,1.404c0,1.342 -3.4,8.088 -4.877,9.677c-1.037,1.115 -2.612,0.731 -3.135,0.877c0,0 0,0 0,0Z" style="fill:#fff;fill-rule:nonzero;"/></g></g></g></svg>