<svg id="Layer_5" enable-background="new 0 0 64 64" height="512" viewBox="0 0 64 64" width="512" xmlns="http://www.w3.org/2000/svg"><path d="m45 29v-2h3v-4c0-2.206-1.794-4-4-4-1.103 0-2-.897-2-2v-2h2c1.103 0 2 .897 2 2h2c0-1.858-1.279-3.411-3-3.858v-2.142h-2v2h-3v4c0 2.206 1.794 4 4 4 1.103 0 2 .897 2 2v2h-2c-1.103 0-2-.897-2-2h-2c0 1.858 1.279 3.411 3 3.858v2.142z"/><path d="m19 37c-1.103 0-2-.897-2-2h-2c0 1.858 1.279 3.411 3 3.858v2.142h2v-2h3v-4c0-2.206-1.794-4-4-4-1.103 0-2-.897-2-2v-2h2c1.103 0 2 .897 2 2h2c0-1.858-1.279-3.411-3-3.858v-2.142h-2v2h-3v4c0 2.206 1.794 4 4 4 1.103 0 2 .897 2 2v2z"/><path d="m51 19h2v2h-2z"/><path d="m35 19h2v2h-2z"/><path d="m60.345 15.38c-.361-1.279-.871-2.509-1.521-3.669l1.238-2.518-5.255-5.255-2.519 1.239c-1.159-.65-2.39-1.16-3.669-1.521l-.903-2.656h-7.432l-.904 2.655c-1.279.361-2.51.871-3.669 1.521l-2.519-1.239-5.255 5.255 1.238 2.518c-.649 1.16-1.159 2.39-1.521 3.669l-2.654.905v3.474c-1.88-.482-3.894-.758-6-.758-9.925 0-18 5.832-18 13v6 6 6c0 7.168 8.075 13 18 13s18-5.832 18-13v-6-6-2.533c.771.349 1.564.648 2.38.878l.904 2.655h7.432l.904-2.655c1.279-.361 2.51-.871 3.669-1.521l2.519 1.239 5.255-5.255-1.238-2.518c.649-1.16 1.159-2.39 1.521-3.669l2.654-.905v-7.432zm-41.345 5.62c8.822 0 16 4.935 16 11s-7.178 11-16 11-16-4.935-16-11 7.178-11 16-11zm16.73 6.233c-.393-.716-.874-1.398-1.429-2.046-.85-1.587-1.301-3.38-1.301-5.187 0-6.065 4.935-11 11-11s11 4.935 11 11-4.935 11-11 11c-3.165 0-6.174-1.374-8.27-3.767zm-23.73 16.744v3.899c-1.474-.496-2.822-1.14-4-1.909v-3.7c1.222.685 2.558 1.268 4 1.71zm6 10.988c-1.388-.059-2.729-.234-4-.523v-3.963c1.281.268 2.62.429 4 .484zm2-4.002c1.38-.055 2.719-.216 4-.484v3.963c-1.271.288-2.612.463-4 .523zm0-1.998v-4.002c1.38-.055 2.719-.216 4-.484v3.963c-1.271.289-2.612.464-4 .523zm-2 0c-1.388-.059-2.729-.234-4-.523v-3.963c1.281.268 2.62.429 4 .484zm-6 1.012v3.899c-1.474-.496-2.822-1.14-4-1.909v-3.7c1.222.685 2.558 1.268 4 1.71zm0 6v3.899c-1.474-.496-2.822-1.14-4-1.909v-3.7c1.222.685 2.558 1.268 4 1.71zm2 .502c1.281.268 2.62.429 4 .484v4.002c-1.388-.059-2.729-.234-4-.523zm6 .484c1.38-.055 2.719-.216 4-.484v3.963c-1.271.288-2.612.463-4 .523zm6-.986c1.442-.441 2.778-1.025 4-1.71v3.7c-1.178.769-2.526 1.413-4 1.909zm0-2.101v-3.9c1.442-.441 2.778-1.025 4-1.71v3.7c-1.178.77-2.526 1.414-4 1.91zm0-6v-3.9c1.442-.441 2.778-1.025 4-1.71v3.7c-1.178.77-2.526 1.414-4 1.91zm-23-9.948c.797 1.117 1.809 2.138 3 3.039v3.421c-1.88-1.803-3-4.005-3-6.388zm0 6c.797 1.117 1.809 2.138 3 3.039v3.421c-1.88-1.803-3-4.005-3-6.388zm0 6.072v-.072c.797 1.117 1.809 2.138 3 3.039v3.421c-1.88-1.803-3-4.005-3-6.388zm32 0c0 2.383-1.12 4.585-3 6.388v-3.421c1.191-.9 2.203-1.922 3-3.039zm0-6c0 2.383-1.12 4.585-3 6.388v-3.421c1.191-.9 2.203-1.922 3-3.039zm-3 .388v-3.421c1.191-.9 2.203-1.922 3-3.039v.072c0 2.383-1.12 4.585-3 6.388zm29-22.104-2.324.792-.131.53c-.36 1.455-.936 2.843-1.711 4.127l-.282.468 1.085 2.204-3.231 3.23-2.204-1.084-.468.283c-1.283.775-2.672 1.351-4.128 1.71l-.53.131-.792 2.325h-4.568l-.791-2.325-.53-.131c-1.183-.293-2.32-.736-3.395-1.306v-1.238c0-.38-.035-.755-.079-1.127 2.09 1.365 4.538 2.127 7.079 2.127 7.168 0 13-5.832 13-13s-5.832-13-13-13-13 5.832-13 13c0 .847.107 1.688.271 2.516-1.268-.856-2.703-1.579-4.271-2.144v-2.656l2.324-.792.131-.53c.36-1.455.936-2.843 1.711-4.127l.282-.468-1.085-2.204 3.231-3.23 2.204 1.084.468-.283c1.283-.775 2.672-1.351 4.128-1.71l.53-.131.792-2.325h4.568l.791 2.325.53.131c1.456.36 2.845.936 4.128 1.71l.468.283 2.204-1.084 3.231 3.23-1.085 2.204.282.468c.775 1.284 1.351 2.673 1.711 4.127l.131.53 2.325.792z"/><path d="m25 31h2v2h-2z"/><path d="m29 31h2v2h-2z"/><path d="m7 31h2v2h-2z"/><path d="m11 31h2v2h-2z"/><path d="m59 39h2v2h-2z"/><path d="m59 43h2v2h-2z"/><path d="m61 41h2v2h-2z"/><path d="m57 41h2v2h-2z"/><path d="m41 46h2v2h-2z"/><path d="m41 50h2v2h-2z"/><path d="m43 48h2v2h-2z"/><path d="m39 48h2v2h-2z"/><path d="m22 1h2v2h-2z"/><path d="m22 5h2v2h-2z"/><path d="m24 3h2v2h-2z"/><path d="m20 3h2v2h-2z"/><path d="m12 11h2v2h-2z"/><path d="m12 15h2v2h-2z"/><path d="m14 13h2v2h-2z"/><path d="m10 13h2v2h-2z"/><path d="m53 50h2v2h-2z"/><path d="m53 54h2v2h-2z"/><path d="m55 52h2v2h-2z"/><path d="m51 52h2v2h-2z"/></svg>