<svg id="Layer_5" enable-background="new 0 0 64 64" height="512" viewBox="0 0 64 64" width="512" xmlns="http://www.w3.org/2000/svg"><path d="m63 1h-52v12h-5c-2.757 0-5 2.243-5 5v40c0 2.757 2.243 5 5 5h26c2.757 0 5-2.243 5-5v-23.5l-4-3v-4.5h10.695c-2.834 1.992-4.695 5.28-4.695 9 0 2.573.894 4.936 2.38 6.812-1.538.865-2.38 1.967-2.38 3.188v12c0 3.248 5.667 5 11 5s11-1.752 11-5v-12c0-1.221-.842-2.323-2.38-3.188 1.486-1.876 2.38-4.239 2.38-6.812 0-3.72-1.861-7.008-4.695-9h6.695zm-32.896 2c-3.66 2.303-6.104 6.367-6.104 11 0 2.5.726 4.921 2.057 7h-13.057v-18zm-24.104 12h5v6h-5c-1.654 0-3-1.346-3-3s1.346-3 3-3zm-3 43v-36.002c.836.629 1.875 1.002 3 1.002h1v38h-1c-1.654 0-3-1.346-3-3zm32-22.5v22.5c0 1.654-1.346 3-3 3h-23v-38h19c1.654 0 3 1.346 3 3v6.5zm-2.101-10.5c-.427-2.093-2.173-3.691-4.324-3.942-1.657-1.978-2.575-4.468-2.575-7.058 0-6.065 4.935-11 11-11s11 4.935 11 11-4.935 11-11 11zm8.101 23.958c.574.362 1.253.675 2 .943v1.875c-1.284-.563-2-1.225-2-1.776zm8 8.022c-1.524-.062-2.865-.263-4-.544v-1.962c1.264.279 2.63.45 4 .506zm0 2v2c-1.524-.062-2.865-.263-4-.544v-1.962c1.264.279 2.63.45 4 .506zm2 0c1.37-.056 2.736-.227 4-.506v1.962c-1.135.28-2.476.482-4 .544zm0-2v-2c1.37-.056 2.736-.227 4-.506v1.962c-1.135.28-2.476.482-4 .544zm0-4v-2c1.37-.056 2.736-.227 4-.506v1.962c-1.135.28-2.476.482-4 .544zm-2 0c-1.524-.062-2.865-.263-4-.544v-1.962c1.264.279 2.63.45 4 .506zm-8-.022c.574.362 1.253.675 2 .943v1.875c-1.284-.563-2-1.225-2-1.776zm0 5.042v-1.042c.574.362 1.253.675 2 .943v1.875c-1.284-.563-2-1.225-2-1.776zm16 1.776v-1.875c.747-.268 1.426-.581 2-.943v1.042c0 .551-.716 1.213-2 1.776zm0-4v-1.875c.747-.268 1.426-.581 2-.943v1.042c0 .551-.716 1.213-2 1.776zm0-4v-1.875c.747-.268 1.426-.581 2-.943v1.042c0 .551-.716 1.213-2 1.776zm2-5.776c0 1.224-3.506 3-9 3s-9-1.776-9-3c0-.525.698-1.161 1.816-1.688 1.93 1.67 4.438 2.688 7.184 2.688s5.254-1.018 7.184-2.688c1.118.527 1.816 1.163 1.816 1.688zm0-10c0 4.963-4.038 9-9 9s-9-4.037-9-9 4.038-9 9-9 9 4.037 9 9zm2-11h-17.104c3.66-2.303 6.104-6.367 6.104-11s-2.444-8.697-6.104-11h17.104z"/><path d="m37 9c1.103 0 2 .897 2 2h2c0-1.859-1.28-3.411-3-3.858v-2.142h-2v2h-3v4c0 2.206 1.794 4 4 4 1.103 0 2 .897 2 2v2h-2c-1.103 0-2-.897-2-2h-2c0 1.859 1.28 3.411 3 3.858v2.142h2v-2h3v-4c0-2.206-1.794-4-4-4-1.103 0-2-.897-2-2v-2z"/><path d="m44 13h2v2h-2z"/><path d="m28 13h2v2h-2z"/><path d="m27 48v-2c0-2.414-1.721-4.434-4-4.899v-7.917c1.161.414 2 1.514 2 2.816v1h2v-1c0-2.414-1.721-4.434-4-4.899v-4.101h-2v4h-2v-4h-2v4.101c-2.279.465-4 2.484-4 4.899v2c0 2.414 1.721 4.434 4 4.899v7.917c-1.161-.414-2-1.514-2-2.816v-1h-2v1c0 2.414 1.721 4.434 4 4.899v4.101h2v-4h2v4h2v-4.101c2.279-.465 4-2.485 4-4.899zm-6-15v8h-2v-8zm-6 5v-2c0-1.302.839-2.402 2-2.816v7.631c-1.161-.413-2-1.513-2-2.815zm4 13v-8h2v8zm6-3c0 1.302-.839 2.402-2 2.816v-7.631c1.161.414 2 1.514 2 2.816z"/><path d="m31 57h-4v2h4c1.103 0 2-.897 2-2v-12h-2z"/><path d="m31 41h2v2h-2z"/><path d="m57 11h2v-6h-6v2h4z"/><path d="m17 7h4v-2h-6v6h2z"/><path d="m59 17h-2v4h-4v2h6z"/><path d="m50 39c-.551 0-1-.448-1-1h-2c0 1.302.839 2.402 2 2.816v2.184h2v-2h2v-3c0-1.654-1.346-3-3-3-.551 0-1-.448-1-1v-1h1c.551 0 1 .448 1 1h2c0-1.302-.839-2.402-2-2.816v-2.184h-2v2h-2v3c0 1.654 1.346 3 3 3 .551 0 1 .448 1 1v1z"/><circle cx="44" cy="36" r="1"/><circle cx="56" cy="36" r="1"/></svg>