<svg id="Layer_5" enable-background="new 0 0 64 64" height="512" viewBox="0 0 64 64" width="512" xmlns="http://www.w3.org/2000/svg"><path d="m55 45v-39c0-2.757-2.243-5-5-5h-34c-2.757 0-5 2.243-5 5v17h8v3.597c-.04.038-.082.071-.121.11l-16.172 16.172c-1.085 1.085-1.707 2.587-1.707 4.121s.622 3.036 1.707 4.121l10.172 10.172c1.1 1.101 2.564 1.707 4.121 1.707s3.021-.606 4.121-1.707l6.293-6.293h30.586c2.757 0 5-2.243 5-5v-5zm-42-24v-15c0-1.654 1.346-3 3-3s3 1.346 3 3v15zm6.974-18h30.026c1.654 0 3 1.346 3 3v39h-15.598c.545-.577.962-1.26 1.233-2h12.365v-30h-28v12c-.694 0-1.367.127-2 .358v-19.358c0-1.13-.391-2.162-1.026-3zm19.026 16h4v22h-4zm6 0h4v22h-4zm4-2h-16v-2h16zm-18 0h-6v-2h6zm-6 2h6v11.586l-3.879-3.879c-.61-.61-1.334-1.062-2.121-1.349zm8 0h4v17.586l-4-4zm-13.293 40.879c-1.446 1.445-3.968 1.445-5.414 0l-10.172-10.172c-.712-.713-1.121-1.699-1.121-2.707s.409-1.994 1.121-2.707l16.172-16.172c.723-.723 1.685-1.121 2.707-1.121s1.984.398 2.707 1.121l10.172 10.172c.712.713 1.121 1.699 1.121 2.707s-.409 1.994-1.121 2.707zm41.293-9.879c0 1.654-1.346 3-3 3h-28.586l6-6h25.586z"/><path d="m4.586 47 7.414 7.414 7.414-7.414-7.414-7.414zm4.414-1.586 1.586 1.586-1.586 1.586-1.586-1.586zm3 6.172-1.586-1.586 3-3-3-3 1.586-1.586 4.586 4.586z"/><path d="m23 28.586-7.414 7.414 4.414 4.414 7.414-7.414zm1.586 4.414-1.586 1.586-1.586-1.586 1.586-1.586zm-6.172 3 1.586-1.586 1.586 1.586-1.586 1.586z"/><path d="m32.293 40.707h2v2h-2z" transform="matrix(.707 -.707 .707 .707 -19.74 35.757)"/><path d="m29.464 43.535h2v2h-2z" transform="matrix(.707 -.707 .707 .707 -22.568 34.586)"/><path d="m26.722 46.329h1.899v2h-1.899z" transform="matrix(.707 -.707 .707 .707 -25.362 33.429)"/><path d="m20.136 41.5h12.728v2h-12.728z" transform="matrix(.707 -.707 .707 .707 -22.29 31.186)"/><path d="m51 5h-10v6h10zm-2 4h-6v-2h6z"/><path d="m23 5h2v2h-2z"/><path d="m27 5h2v2h-2z"/><path d="m31 5h2v2h-2z"/><path d="m57 49h2v2h-2z"/><path d="m53 49h2v2h-2z"/><path d="m49 49h2v2h-2z"/></svg>