<svg id="Layer_5" enable-background="new 0 0 64 64" height="512" viewBox="0 0 64 64" width="512" xmlns="http://www.w3.org/2000/svg"><g><path d="m32 13c1.103 0 2 .897 2 2h2c0-1.858-1.28-3.411-3-3.858v-2.142h-2v2h-3v4c0 2.206 1.794 4 4 4 1.103 0 2 .897 2 2v2h-2c-1.103 0-2-.897-2-2h-2c0 1.858 1.28 3.411 3 3.858v2.142h2v-2h3v-4c0-2.206-1.794-4-4-4-1.103 0-2-.897-2-2v-2z"/><path d="m32 5c-7.168 0-13 5.832-13 13s5.832 13 13 13 13-5.832 13-13-5.832-13-13-13zm0 24c-6.065 0-11-4.935-11-11s4.935-11 11-11 11 4.935 11 11-4.935 11-11 11z"/><path d="m55.388 22h3.612c2.206 0 4-1.794 4-4s-1.794-4-4-4h-10.495c-1.806-7.447-8.511-13-16.505-13s-14.699 5.553-16.505 13h-10.495c-2.206 0-4 1.794-4 4s1.794 4 4 4h3.612l-5.333 16h-2.279v2c0 5.514 4.486 10 10 10s10-4.486 10-10v-2h-2.279l-5.333-16h2.107c1.494 6.161 6.344 11.011 12.505 12.505v3.495c0 .537.153 1.034.401 1.471-.839.532-1.401 1.464-1.401 2.529v16c0 2.757 2.243 5 5 5s5-2.243 5-5v-16c0-1.065-.562-1.997-1.401-2.529.248-.437.401-.934.401-1.471v-3.495c6.161-1.494 11.011-6.344 12.505-12.505h2.107l-5.333 16h-2.279v2c0 5.514 4.486 10 10 10s10-4.486 10-10v-2h-2.279zm-44.388 26c-4.411 0-8-3.589-8-8h16c0 4.411-3.589 8-8 8zm5.612-10h-11.224l5.333-16h.558zm-11.612-18c-1.103 0-2-.897-2-2s.897-2 2-2h10.128c-.077.657-.128 1.322-.128 2s.051 1.343.128 2zm30 38c0 1.654-1.346 3-3 3s-3-1.346-3-3v-16c0-.552.449-1 1-1h1 2 1c.551 0 1 .448 1 1zm-1-20c0 .552-.449 1-1 1h-2c-.551 0-1-.448-1-1v-3.128c.657.077 1.322.128 2 .128s1.343-.051 2-.128zm-2-5c-8.271 0-15-6.729-15-15s6.729-15 15-15 15 6.729 15 15-6.729 15-15 15zm16.872-17h10.128c1.103 0 2 .897 2 2s-.897 2-2 2h-10.128c.077-.657.128-1.322.128-2s-.051-1.343-.128-2zm3.849 6h.558l5.333 16h-11.224zm.279 26c-4.411 0-8-3.589-8-8h16c0 4.411-3.589 8-8 8z"/></g></svg>